<?xml version="1.0" encoding="UTF-8"?>
<svg id="_레이어_1" data-name="레이어 1" xmlns="http://www.w3.org/2000/svg" xmlns:xlink="http://www.w3.org/1999/xlink" viewBox="0 0 80 80">
  <defs>
    <style>
      .cls-1 {
        fill: url(#_무제_그라디언트_121-4);
      }

      .cls-2 {
        fill: url(#_무제_그라디언트_377);
      }

      .cls-3 {
        fill: #fff;
      }

      .cls-4 {
        fill: url(#_무제_그라디언트_121-3);
      }

      .cls-5, .cls-6 {
        fill: none;
      }

      .cls-7 {
        fill: url(#_무제_그라디언트_121-2);
      }

      .cls-8 {
        clip-path: url(#clippath-1);
      }

      .cls-6 {
        stroke: #442aff;
        stroke-linecap: round;
        stroke-linejoin: round;
        stroke-width: 1.607px;
      }

      .cls-9 {
        fill: #64dbff;
      }

      .cls-10 {
        fill: url(#_무제_그라디언트_399);
      }

      .cls-11 {
        fill: url(#_무제_그라디언트_121);
      }

      .cls-12 {
        fill: url(#_무제_그라디언트_107);
      }

      .cls-13 {
        fill: url(#_무제_그라디언트_399-2);
      }

      .cls-14 {
        clip-path: url(#clippath);
      }
    </style>
    <clipPath id="clippath">
      <circle class="cls-3" cx="40" cy="40" r="40"/>
    </clipPath>
    <clipPath id="clippath-1">
      <rect class="cls-5" width="80" height="80"/>
    </clipPath>
    <linearGradient id="_무제_그라디언트_107" data-name="무제 그라디언트 107" x1="60.058" y1="69.33" x2="49.169" y2="75.108" gradientUnits="userSpaceOnUse">
      <stop offset="0" stop-color="#442aff"/>
      <stop offset="1" stop-color="#2934b9"/>
    </linearGradient>
    <linearGradient id="_무제_그라디언트_121" data-name="무제 그라디언트 121" x1="45.363" y1="39.014" x2="34.723" y2="45.872" gradientUnits="userSpaceOnUse">
      <stop offset="0" stop-color="#64dbff"/>
      <stop offset=".136" stop-color="#62d6fe"/>
      <stop offset=".289" stop-color="#5fc8fc"/>
      <stop offset=".451" stop-color="#5ab2f8"/>
      <stop offset=".619" stop-color="#5292f4"/>
      <stop offset=".792" stop-color="#4869ed"/>
      <stop offset=".966" stop-color="#3c38e6"/>
      <stop offset="1" stop-color="#3a2ee5"/>
    </linearGradient>
    <linearGradient id="_무제_그라디언트_121-2" data-name="무제 그라디언트 121" x1="53.617" y1="55.42" x2="42.977" y2="62.279" xlink:href="#_무제_그라디언트_121"/>
    <linearGradient id="_무제_그라디언트_121-3" data-name="무제 그라디언트 121" x1="50.356" y1="46.978" x2="38.207" y2="54.809" xlink:href="#_무제_그라디언트_121"/>
    <linearGradient id="_무제_그라디언트_121-4" data-name="무제 그라디언트 121" x1="33.274" y1="15.322" x2="21.821" y2="22.705" xlink:href="#_무제_그라디언트_121"/>
    <linearGradient id="_무제_그라디언트_377" data-name="무제 그라디언트 377" x1="37.062" y1="21.032" x2="24.666" y2="27.344" gradientUnits="userSpaceOnUse">
      <stop offset="0" stop-color="#98ffff"/>
      <stop offset=".171" stop-color="#94fafe"/>
      <stop offset=".364" stop-color="#8becfc"/>
      <stop offset=".568" stop-color="#7cd6f8"/>
      <stop offset=".779" stop-color="#67b6f3"/>
      <stop offset=".994" stop-color="#4c8eed"/>
      <stop offset="1" stop-color="#4c8ded"/>
    </linearGradient>
    <linearGradient id="_무제_그라디언트_399" data-name="무제 그라디언트 399" x1="48.133" y1="43.445" x2="36.161" y2="49.612" gradientUnits="userSpaceOnUse">
      <stop offset="0" stop-color="#98ffff"/>
      <stop offset=".17" stop-color="#94fafe"/>
      <stop offset=".363" stop-color="#8becfc"/>
      <stop offset=".569" stop-color="#7cd5f8"/>
      <stop offset=".782" stop-color="#67b5f3"/>
      <stop offset="1" stop-color="#4c8ded"/>
    </linearGradient>
    <linearGradient id="_무제_그라디언트_399-2" data-name="무제 그라디언트 399" x1="52.518" y1="52.138" x2="40.546" y2="58.304" xlink:href="#_무제_그라디언트_399"/>
  </defs>
  <g id="_공통악기_싱크_11-6_리코더6_리코더윗관__off" data-name="공통악기_싱크_11-6_리코더6(리코더윗관)_off">
    <g id="_공통악기_싱크_11-2_리코더2_off" data-name="공통악기_싱크_11-2_리코더2_off">
      <g>
        <circle class="cls-3" cx="40" cy="40" r="40"/>
        <g class="cls-14">
          <g class="cls-8">
            <g>
              <g>
                <g id="Duplicate_Items_Folder_02_copy_0_Layer0_0_FILL" data-name="Duplicate Items Folder    02 copy 0 Layer0 0 FILL">
                  <path class="cls-3" d="M81.209,108.594c-.236.135-.395.32-.48.555-.084.252-.067.488.05.707.135.236.32.395.555.48.252.084.496.059.732-.076.236-.118.395-.303.48-.555.084-.236.067-.471-.05-.707-.118-.219-.303-.37-.555-.454-.252-.084-.496-.067-.732.05M77.777,100.24c.101-.252.084-.488-.05-.707-.118-.219-.294-.37-.53-.454-.252-.084-.496-.067-.732.05-.236.118-.395.303-.48.555-.084.236-.067.471.05.707s.303.395.555.48c.236.084.471.059.707-.076.236-.118.395-.303.48-.555M80.376,110.184l-.05-.126c-.185-.32-.454-.538-.808-.656-.37-.118-.723-.084-1.06.101-.353.185-.589.454-.707.808-.118.37-.093.723.076,1.06.168.337.437.564.808.681.37.118.723.084,1.06-.101.353-.168.589-.437.707-.808.118-.337.109-.656-.025-.959M73.007,100.846c-.135.37-.118.723.05,1.06.185.337.454.564.808.681.37.118.732.084,1.085-.101.337-.185.572-.454.707-.808.101-.337.093-.648-.025-.934-.017-.05-.034-.093-.05-.126-.017-.05-.042-.093-.076-.126-.168-.269-.412-.454-.732-.555-.37-.101-.732-.067-1.085.101-.337.185-.564.454-.681.808M71.82,91.003c-.353-.118-.707-.109-1.06.025-.067.017-.135.042-.202.076-.404.219-.673.538-.808.959-.151.437-.126.85.076,1.237.202.404.522.673.959.808.421.135.833.101,1.237-.101.067-.034.126-.067.177-.101.32-.202.538-.48.656-.833.151-.437.126-.858-.076-1.262s-.522-.673-.959-.808M68.009,83.406c-.37-.118-.723-.109-1.06.025-.067.017-.135.042-.202.076-.421.219-.698.538-.833.959-.151.421-.126.833.076,1.237.202.404.522.673.959.808s.858.101,1.262-.101c.05-.034.109-.067.177-.101.303-.219.522-.505.656-.858.135-.437.101-.85-.101-1.237-.202-.404-.513-.673-.934-.808M62.179,78.106c.202.387.522.656.959.808.421.135.833.093,1.237-.126.067-.034.126-.067.177-.101.32-.202.538-.48.656-.833.151-.437.126-.858-.076-1.262-.202-.387-.522-.648-.959-.782-.353-.135-.707-.126-1.06.025-.067.017-.135.042-.202.076-.404.202-.673.522-.808.959-.151.421-.126.833.076,1.237M60.362,68.187c-.37-.118-.732-.109-1.085.025-.067.017-.126.042-.177.076-.421.219-.698.538-.833.959-.151.437-.126.85.076,1.237.202.404.522.673.959.808.437.135.858.101,1.262-.101.05-.034.109-.067.177-.101.303-.202.522-.488.656-.858.135-.437.101-.85-.101-1.237-.202-.404-.513-.673-.934-.808M57.485,61.373c-.202-.387-.522-.648-.959-.782-.37-.118-.723-.109-1.06.025-.067.017-.135.042-.202.076-.404.202-.673.522-.808.959-.151.421-.126.833.076,1.237.202.404.522.673.959.808.421.135.833.101,1.237-.101.067-.034.126-.067.177-.101.32-.219.538-.505.656-.858.151-.437.126-.858-.076-1.262Z"/>
                </g>
                <path id="Duplicate_Items_Folder_02_copy_0_Layer0_0_1_STROKES" data-name="Duplicate Items Folder    02 copy 0 Layer0 0 1 STROKES" class="cls-6" d="M80.376,110.184l1.994,3.962.076-.05c.337-.168.673-.185,1.01-.05.353.118.614.345.782.681.185.337.227.681.126,1.035-.118.353-.337.614-.656.782l-2.17,1.11c.269.791.597,1.54.984,2.246,1.683,3.197,4.089,5.014,7.218,5.451l.404-.202c.421-.219.858-.261,1.312-.126.454.135.791.412,1.01.833.219.421.244.858.076,1.312-.151.437-.446.766-.883.984l-13.603,6.915c-.421.219-.858.261-1.312.126-.454-.135-.791-.412-1.01-.833-.219-.421-.252-.85-.101-1.287.168-.454.463-.791.883-1.01l.429-.202c1.481-2.793,1.422-5.805-.177-9.035-.353-.723-.766-1.43-1.237-2.12l-2.044,1.035c-.337.168-.673.193-1.01.076-.353-.135-.614-.37-.782-.707s-.202-.681-.101-1.035c.101-.353.311-.614.631-.782l.101-.05-4.089-8.101-.126.05c-.185.084-.379.093-.58.025-.202-.084-.353-.219-.454-.404-.101-.202-.126-.404-.076-.606.067-.219.193-.379.379-.48l.126-.05-23.875-47.524-.151.05c-.168.101-.362.118-.58.05-.202-.084-.353-.227-.454-.429-.101-.202-.118-.404-.05-.606.05-.202.168-.353.353-.454l.151-.076-.984-1.918c-.286.135-.58.16-.883.076-.303-.067-.522-.236-.656-.505-.135-.269-.143-.547-.025-.833.084-.219.227-.404.429-.555-2.086-.723-3.273-2.12-3.559-4.19-.101-.69-.084-1.422.05-2.196l.101-.404c-.236.067-.471.067-.707,0-.32-.067-.547-.236-.681-.505s-.135-.555,0-.858c.118-.286.32-.505.606-.656l-1.211-2.423-.151.076c-.185.084-.379.093-.58.025-.202-.067-.353-.202-.454-.404-.101-.202-.118-.404-.05-.606.05-.219.168-.37.353-.454l.151-.076-8.202-16.279-.076.025c-.32.168-.656.185-1.01.05s-.614-.37-.782-.707c-.168-.337-.202-.681-.101-1.035.05-.168.118-.311.202-.429-1.615-1.884-2.372-3.491-2.271-4.821.05-.538.227-.993.53-1.363.151-.185.303-.32.454-.404,1.11-1.195,1.321-2.692.631-4.492l-1.363-2.322,3.735-2.221c2.675.639,5.098,2.7,7.269,6.183.808,1.296,1.464,2.557,1.969,3.786.236-.067.471-.05.707.05.353.118.614.345.782.681.168.337.202.69.101,1.06-.101.353-.311.614-.631.782l-.101.05,8.202,16.304.126-.076c.185-.101.379-.109.58-.025.202.067.353.202.454.404.101.202.126.404.076.606-.067.219-.193.37-.379.454l-.126.076,1.211,2.423c.286-.151.58-.185.883-.101.32.067.547.236.681.505.135.269.135.555,0,.858-.067.185-.185.345-.353.48,2.036.993,3.264,2.448,3.685,4.366.185.892.202,1.708.05,2.448.101,0,.202.008.303.025.32.067.547.236.681.505.135.286.135.572,0,.858-.118.286-.32.505-.606.656l.984,1.943.126-.076c.185-.084.379-.093.58-.025.202.067.353.202.454.404s.126.404.076.606c-.067.219-.193.37-.379.454l-.151.076,1.817,3.584c.337-.135.69-.143,1.06-.025.437.135.757.395.959.782.202.404.227.824.076,1.262-.118.353-.337.639-.656.858l2.372,4.72c.353-.135.715-.143,1.085-.025.421.135.732.404.934.808.202.387.236.799.101,1.237-.135.37-.353.656-.656.858l2.372,4.745c.353-.151.707-.16,1.06-.025.437.135.757.395.959.782.202.404.227.824.076,1.262-.118.353-.337.631-.656.833l2.398,4.745c.337-.135.69-.143,1.06-.025.421.135.732.404.934.808.202.387.236.799.101,1.237-.135.353-.353.639-.656.858l2.372,4.72c.353-.135.707-.143,1.06-.025.437.135.757.404.959.808s.227.824.076,1.262c-.118.353-.337.631-.656.833l3.306,6.587M75.631,100.745l1.943,3.836.126-.076c.185-.101.379-.109.58-.025.202.067.353.202.454.404.101.185.118.387.05.606-.05.202-.168.353-.353.454l-.151.076,2.044,4.038M80.376,110.184c.135.303.143.623.025.959-.118.37-.353.639-.707.808-.337.185-.69.219-1.06.101-.37-.118-.639-.345-.808-.681-.168-.337-.193-.69-.076-1.06.118-.353.353-.623.707-.808.337-.185.69-.219,1.06-.101.353.118.623.337.808.656M56.905,63.493c-.05.034-.109.067-.177.101-.404.202-.816.236-1.237.101-.437-.135-.757-.404-.959-.808-.202-.404-.227-.816-.076-1.237.135-.437.404-.757.808-.959.067-.034.135-.059.202-.076M60.741,71.09c-.067.034-.126.067-.177.101-.404.202-.824.236-1.262.101-.437-.135-.757-.404-.959-.808-.202-.387-.227-.799-.076-1.237.135-.421.412-.74.833-.959.05-.034.109-.059.177-.076M64.552,78.686c-.05.034-.109.067-.177.101-.404.219-.816.261-1.237.126-.437-.151-.757-.421-.959-.808-.202-.404-.227-.816-.076-1.237.135-.437.404-.757.808-.959.067-.034.135-.059.202-.076M68.388,86.308c-.067.034-.126.067-.177.101-.404.202-.824.236-1.262.101s-.757-.404-.959-.808c-.202-.404-.227-.816-.076-1.237.135-.421.412-.74.833-.959.067-.034.135-.059.202-.076M72.199,93.905c-.05.034-.109.067-.177.101-.404.202-.816.236-1.237.101-.437-.135-.757-.404-.959-.808-.202-.387-.227-.799-.076-1.237.135-.421.404-.74.808-.959.067-.034.135-.059.202-.076M75.631,100.745c.118.286.126.597.025.934-.135.353-.37.623-.707.808-.353.185-.715.219-1.085.101-.353-.118-.623-.345-.808-.681-.168-.337-.185-.69-.05-1.06.118-.353.345-.623.681-.808.353-.168.715-.202,1.085-.101.32.101.564.286.732.555M77.196,99.079c.236.084.412.236.53.454.135.219.151.454.05.707-.084.252-.244.437-.48.555-.236.135-.471.16-.707.076-.252-.084-.437-.244-.555-.48s-.135-.471-.05-.707c.084-.252.244-.437.48-.555.236-.118.48-.135.732-.05ZM80.73,109.149c.084-.236.244-.421.48-.555.236-.118.48-.135.732-.05.252.084.437.236.555.454.118.236.135.471.05.707-.084.252-.244.437-.48.555-.236.135-.48.16-.732.076-.236-.084-.421-.244-.555-.48-.118-.219-.135-.454-.05-.707Z"/>
              </g>
              <g id="Duplicate_Items_Folder_02_copy_0_Layer0_1_MEMBER_0_FILL" data-name="Duplicate Items Folder    02 copy 0 Layer0 1 MEMBER 0 FILL">
                <path class="cls-12" d="M36.487,22.885l-10.07,5.048,46.918,93.331,10.07-5.073L36.487,22.885Z"/>
              </g>
              <g>
                <g id="Duplicate_Items_Folder_02_copy_0_Layer0_1_MEMBER_3_FILL" data-name="Duplicate Items Folder    02 copy 0 Layer0 1 MEMBER 3 FILL">
                  <path class="cls-9" d="M34.644,45.826c.202.067.395.059.58-.025l10.322-5.25c.185-.084.311-.236.379-.454.05-.202.025-.404-.076-.606s-.252-.337-.454-.404c-.202-.084-.395-.076-.58.025l-10.322,5.25c-.185.084-.303.236-.353.454-.067.202-.05.404.05.606.101.202.252.337.454.404Z"/>
                </g>
                <g id="Duplicate_Items_Folder_02_copy_0_Layer0_1_MEMBER_3_FILL-2" data-name="Duplicate Items Folder    02 copy 0 Layer0 1 MEMBER 3 FILL">
                  <path class="cls-11" d="M34.644,45.826c.202.067.395.059.58-.025l10.322-5.25c.185-.084.311-.236.379-.454.05-.202.025-.404-.076-.606s-.252-.337-.454-.404c-.202-.084-.395-.076-.58.025l-10.322,5.25c-.185.084-.303.236-.353.454-.067.202-.05.404.05.606.101.202.252.337.454.404Z"/>
                </g>
              </g>
              <g>
                <g id="Duplicate_Items_Folder_02_copy_0_Layer0_1_MEMBER_4_FILL" data-name="Duplicate Items Folder    02 copy 0 Layer0 1 MEMBER 4 FILL">
                  <path class="cls-9" d="M53.8,56.956c.185-.084.311-.236.379-.454.05-.202.025-.404-.076-.606s-.252-.337-.454-.404c-.202-.067-.395-.059-.58.025l-10.322,5.25c-.185.101-.303.252-.353.454-.067.202-.05.404.05.606s.252.345.454.429c.219.067.412.05.58-.05l10.322-5.25Z"/>
                </g>
                <g id="Duplicate_Items_Folder_02_copy_0_Layer0_1_MEMBER_4_FILL-2" data-name="Duplicate Items Folder    02 copy 0 Layer0 1 MEMBER 4 FILL">
                  <path class="cls-7" d="M53.8,56.956c.185-.084.311-.236.379-.454.05-.202.025-.404-.076-.606s-.252-.337-.454-.404c-.202-.067-.395-.059-.58.025l-10.322,5.25c-.185.101-.303.252-.353.454-.067.202-.05.404.05.606s.252.345.454.429c.219.067.412.05.58-.05l10.322-5.25Z"/>
                </g>
              </g>
              <path class="cls-4" d="M52.564,52.136c-.135-.269-.362-.437-.681-.505-.104-.022-.208-.014-.312-.012.157-.744.151-1.562-.041-2.461-.426-1.925-1.669-3.377-3.707-4.37.163-.137.299-.289.376-.476.135-.303.135-.589,0-.858-.135-.269-.362-.438-.681-.505-.32-.084-.639-.042-.959.126l-9.919,5.048c-.32.151-.538.379-.656.681-.135.303-.135.589,0,.858.135.269.362.437.681.505.238.063.477.032.715-.046l-.109.45c-.135.774-.151,1.506-.05,2.196.281,2.078,1.489,3.465,3.598,4.179-.209.153-.378.333-.468.566-.118.286-.109.564.025.833.135.269.353.437.656.505.32.084.639.042.959-.126l9.919-5.048c.32-.151.538-.379.656-.681.135-.286.135-.572,0-.858Z"/>
              <g id="Duplicate_Items_Folder_02_copy_0_Layer0_1_MEMBER_11_FILL" data-name="Duplicate Items Folder    02 copy 0 Layer0 1 MEMBER 11 FILL">
                <path class="cls-3" d="M40.146,30.179l-2.07-4.114-1.363.707.959,4.669,2.473-1.262Z"/>
              </g>
              <g id="Duplicate_Items_Folder_02_copy_0_Layer0_1_MEMBER_12_FILL" data-name="Duplicate Items Folder    02 copy 0 Layer0 1 MEMBER 12 FILL">
                <path class="cls-3" d="M57.485,61.373c-.202-.387-.522-.648-.959-.782-.437-.135-.858-.101-1.262.101-.404.202-.673.522-.808.959-.151.421-.126.833.076,1.237.202.404.522.673.959.808.421.135.833.101,1.237-.101.421-.219.698-.538.833-.959.151-.437.126-.858-.076-1.262Z"/>
              </g>
              <g id="Duplicate_Items_Folder_02_copy_0_Layer0_1_MEMBER_13_FILL" data-name="Duplicate Items Folder    02 copy 0 Layer0 1 MEMBER 13 FILL">
                <path class="cls-3" d="M61.296,68.995c-.202-.404-.513-.673-.934-.808-.437-.135-.858-.101-1.262.101-.421.219-.698.538-.833.959-.151.437-.126.85.076,1.237.202.404.522.673.959.808.437.135.858.101,1.262-.101.404-.219.681-.538.833-.959.135-.437.101-.85-.101-1.237Z"/>
              </g>
              <g id="Duplicate_Items_Folder_02_copy_0_Layer0_1_MEMBER_15_FILL" data-name="Duplicate Items Folder    02 copy 0 Layer0 1 MEMBER 15 FILL">
                <path class="cls-3" d="M65.132,76.592c-.202-.387-.522-.648-.959-.782-.421-.151-.841-.118-1.262.101-.404.202-.673.522-.808.959-.151.421-.126.833.076,1.237.202.387.522.656.959.808.421.135.833.093,1.237-.126.421-.202.698-.513.833-.934.151-.437.126-.858-.076-1.262Z"/>
              </g>
            </g>
          </g>
          <path class="cls-1" d="M37.118,20.992c-.168-.337-.429-.564-.782-.681-.238-.095-.476-.111-.715-.054-.504-1.228-1.157-2.488-1.961-3.782-2.17-3.483-4.593-5.544-7.269-6.183l-3.735,2.221,1.363,2.322c.69,1.8.479,3.298-.631,4.492-.151.084-.303.219-.454.404-.303.37-.479.824-.53,1.363-.108,1.331.665,2.941,2.287,4.82-.095.125-.171.265-.218.429-.101.353-.067.698.101,1.035.168.337.429.572.782.707.353.135.69.118,1.01-.05l10.221-5.199c.32-.168.53-.429.631-.782.101-.37.067-.724-.101-1.06Z"/>
          <g>
            <g id="Duplicate_Items_Folder_02_copy_0_Layer0_1_MEMBER_8_FILL" data-name="Duplicate Items Folder    02 copy 0 Layer0 1 MEMBER 8 FILL">
              <path class="cls-9" d="M37.118,20.992c-.168-.337-.429-.564-.782-.681-.337-.135-.673-.118-1.01.05l-10.221,5.199c-.32.168-.53.429-.631.782-.101.353-.067.698.101,1.035.168.337.429.572.782.707.353.135.69.118,1.01-.05l10.221-5.199c.32-.168.53-.429.631-.782.101-.37.067-.723-.101-1.06Z"/>
            </g>
            <g id="Duplicate_Items_Folder_02_copy_0_Layer0_1_MEMBER_8_FILL-2" data-name="Duplicate Items Folder    02 copy 0 Layer0 1 MEMBER 8 FILL">
              <path class="cls-2" d="M37.118,20.992c-.168-.337-.429-.564-.782-.681-.337-.135-.673-.118-1.01.05l-10.221,5.199c-.32.168-.53.429-.631.782-.101.353-.067.698.101,1.035.168.337.429.572.782.707.353.135.69.118,1.01-.05l10.221-5.199c.32-.168.53-.429.631-.782.101-.37.067-.723-.101-1.06Z"/>
            </g>
          </g>
          <g>
            <g id="Duplicate_Items_Folder_02_copy_0_Layer0_1_MEMBER_6_FILL" data-name="Duplicate Items Folder    02 copy 0 Layer0 1 MEMBER 6 FILL">
              <path class="cls-9" d="M48.197,43.454c-.135-.269-.362-.437-.681-.505-.32-.084-.639-.042-.959.126l-9.919,5.048c-.32.151-.538.379-.656.681-.135.303-.135.589,0,.858.135.269.362.437.681.505.32.084.639.042.959-.126l9.919-5.048c.32-.168.538-.395.656-.681.135-.303.135-.589,0-.858Z"/>
            </g>
            <g id="Duplicate_Items_Folder_02_copy_0_Layer0_1_MEMBER_6_FILL-2" data-name="Duplicate Items Folder    02 copy 0 Layer0 1 MEMBER 6 FILL">
              <path class="cls-10" d="M48.197,43.454c-.135-.269-.362-.437-.681-.505-.32-.084-.639-.042-.959.126l-9.919,5.048c-.32.151-.538.379-.656.681-.135.303-.135.589,0,.858.135.269.362.437.681.505.32.084.639.042.959-.126l9.919-5.048c.32-.168.538-.395.656-.681.135-.303.135-.589,0-.858Z"/>
            </g>
          </g>
          <g>
            <g id="Duplicate_Items_Folder_02_copy_0_Layer0_1_MEMBER_6_FILL-3" data-name="Duplicate Items Folder    02 copy 0 Layer0 1 MEMBER 6 FILL">
              <path class="cls-9" d="M52.582,52.147c-.135-.269-.362-.437-.681-.505-.32-.084-.639-.042-.959.126l-9.919,5.048c-.32.151-.538.379-.656.681-.135.303-.135.589,0,.858.135.269.362.437.681.505.32.084.639.042.959-.126l9.919-5.048c.32-.168.538-.395.656-.681.135-.303.135-.589,0-.858Z"/>
            </g>
            <g id="Duplicate_Items_Folder_02_copy_0_Layer0_1_MEMBER_6_FILL-4" data-name="Duplicate Items Folder    02 copy 0 Layer0 1 MEMBER 6 FILL">
              <path class="cls-13" d="M52.582,52.147c-.135-.269-.362-.437-.681-.505-.32-.084-.639-.042-.959.126l-9.919,5.048c-.32.151-.538.379-.656.681-.135.303-.135.589,0,.858.135.269.362.437.681.505.32.084.639.042.959-.126l9.919-5.048c.32-.168.538-.395.656-.681.135-.303.135-.589,0-.858Z"/>
            </g>
          </g>
        </g>
      </g>
    </g>
  </g>
</svg>