<?xml version="1.0" encoding="UTF-8"?>
<svg xmlns="http://www.w3.org/2000/svg" xmlns:xlink="http://www.w3.org/1999/xlink" viewBox="0 0 1210.266 752.111">
  <defs>
    <style>
      .cls-1 {
        clip-path: url(#clippath-6);
      }

      .cls-2 {
        clip-path: url(#clippath-7);
      }

      .cls-3 {
        fill: #231815;
      }

      .cls-4 {
        clip-path: url(#clippath-4);
      }

      .cls-5 {
        clip-path: url(#clippath-9);
      }

      .cls-6 {
        clip-path: url(#clippath-10);
      }

      .cls-7 {
        clip-path: url(#clippath-11);
      }

      .cls-8 {
        fill: none;
      }

      .cls-9 {
        clip-path: url(#clippath-1);
      }

      .cls-10 {
        clip-path: url(#clippath-5);
      }

      .cls-11 {
        clip-path: url(#clippath-8);
      }

      .cls-12 {
        clip-path: url(#clippath-3);
      }

      .cls-13 {
        clip-path: url(#clippath-12);
      }

      .cls-14 {
        clip-path: url(#clippath-2);
      }

      .cls-15 {
        clip-path: url(#clippath);
      }
    </style>
    <clipPath id="clippath">
      <rect class="cls-8" x="7.222" width="54" height="150"/>
    </clipPath>
    <clipPath id="clippath-1">
      <rect class="cls-8" x="75.444" width="28" height="150"/>
    </clipPath>
    <clipPath id="clippath-2">
      <rect class="cls-8" x="105" width="38" height="150"/>
    </clipPath>
    <clipPath id="clippath-3">
      <rect class="cls-8" width="1210.266" height="150"/>
    </clipPath>
    <clipPath id="clippath-4">
      <rect class="cls-8" x="7.222" y="201.288" width="54" height="150"/>
    </clipPath>
    <clipPath id="clippath-5">
      <rect class="cls-8" x="75.444" y="201.288" width="28" height="150"/>
    </clipPath>
    <clipPath id="clippath-6">
      <rect class="cls-8" y="201.288" width="1210.266" height="150"/>
    </clipPath>
    <clipPath id="clippath-7">
      <rect class="cls-8" x="7.222" y="401.7" width="54" height="150"/>
    </clipPath>
    <clipPath id="clippath-8">
      <rect class="cls-8" x="75.444" y="401.7" width="28" height="150"/>
    </clipPath>
    <clipPath id="clippath-9">
      <rect class="cls-8" y="401.7" width="1210.266" height="150"/>
    </clipPath>
    <clipPath id="clippath-10">
      <rect class="cls-8" x="7.222" y="602.111" width="54" height="150"/>
    </clipPath>
    <clipPath id="clippath-11">
      <rect class="cls-8" x="75.444" y="602.111" width="28" height="150"/>
    </clipPath>
    <clipPath id="clippath-12">
      <rect class="cls-8" y="602.111" width="1210.266" height="150"/>
    </clipPath>
  </defs>
  <g id="performance_body_1">
    <g class="cls-15">
      <path d="M42.623,24.855c-3.623-10.948-9.226-7.872-12.993,1.803-4.615,8.872-1.855,21.78.159,28.424-7.452,7.167-21.24,23.486-20.151,31.447-.297,16.403,15.909,27.822,31.234,24.022l2.705,15.061c1.809,8.376-9.274,16.778-15.962,9.811,14.514.574,7.374-21.115-4.243-12.621-7.932,6.256,2.383,19.059,10.766,16.863,16.273-3.682,9.642-18.46,7.954-29.697,22.148-3.952,15.886-40.145-6.788-35.106l-2.015-10.712c11.756-9.228,14.713-25.542,9.333-39.296M41.298,28.567c3.938,9.197-2.889,20.419-10.023,25.349l-1.326-12.409c.878-5.13,5.785-20.903,11.349-12.939M22.79,75.499c3.217-4.49,6.311-7.866,9.28-10.129l1.803,9.758c-17.044,4.301-14.656,28.026,2.068,30.864v-.795c-13.341-2.126-15.175-20.523-1.008-23.121l5.409,26.091c-19.793,5.482-32.927-16.59-17.553-32.667M46.389,84.621c8.648,5.917,6.067,20.901-4.614,22.697l-5.144-25.243c3.535-.601,6.788.247,9.758,2.545Z"/>
      <path class="cls-3" d="M41.398,4.563c-.56-.581-1.281-.876-2.142-.876-.883,0-1.768.338-2.634,1.007-.879.7-1.42,1.613-1.607,2.714-.271,1.543.198,2.695,1.395,3.43l-.07.032c-.821.419-1.467.845-1.918,1.266-.478.448-.792,1.121-.932,1.996-.208,1.153.028,2.106.699,2.829.62.702,1.402,1.059,2.326,1.059,1.03,0,2.014-.379,2.923-1.126.923-.759,1.5-1.802,1.716-3.099.174-1.034.043-1.907-.393-2.595-.354-.54-.815-.933-1.372-1.172l.126-.104c.721-.34,1.286-.709,1.684-1.096.4-.406.667-.967.795-1.668.193-1.115-.007-1.989-.594-2.598ZM34.893,14.356c.096-.565.312-1.083.643-1.543.339-.49.695-.871,1.064-1.136.503-.383.715-.44.797-.44.296,0,.65.131,1.051.39.395.254.705.621.922,1.091l.01.019c.25.439.326.936.234,1.516-.153.892-.498,1.569-1.057,2.073-.557.52-1.185.783-1.867.783-.662,0-1.147-.244-1.49-.757-.355-.474-.456-1.126-.306-1.995ZM36.965,8.736c-.427-.534-.576-1.146-.457-1.87.123-.714.418-1.276.902-1.719.498-.461,1.023-.695,1.558-.695.646,0,1.117.235,1.441.721.329.473.416,1.088.268,1.878v.006c-.109.649-.415,1.239-.91,1.752-.481.496-.907.747-1.264.747-.593,0-1.096-.269-1.538-.822Z"/>
    </g>
    <g class="cls-9">
      <g id="musicScore_0_Layer0_0_FILL" data-name="musicScore      0 Layer0 0 FILL">
        <path d="M91.518,32.575v-5.354l-2.12.689v-7.103h-1.537v7.527l-4.982,1.696v-7.845h-1.484v8.322l-2.226.795v5.301l2.226-.689v7.633l-2.226.742v5.354l2.226-.689v7.209h1.484v-7.739l4.982-1.59v7.951h1.537v-8.481l2.12-.689v-5.354l-2.12.636v-7.58l2.12-.742M87.861,33.688v7.792l-4.982,1.537v-7.58l4.982-1.749Z"/>
      </g>
    </g>
    <g class="cls-14">
      <g>
        <g>
          <rect class="cls-8" x="111.135" y="75.112" width="31.678" height="36.957"/>
          <g id="Layer1_0_MEMBER_0_FILL" data-name="Layer1 0 MEMBER 0 FILL">
            <path d="M132.755,79.504c1.36-1.927,2.23-3.307,2.607-4.138h-12.867c-.642,5.593-1.738,10.127-3.288,13.604-1.436,3.514-3.628,6.896-6.575,10.146v2.948h14.964v1.984c0,1.965-.34,3.288-1.02,3.968-.756.756-1.871,1.134-3.344,1.134v2.664h18.082v-2.494c-2.985,0-4.478-1.606-4.478-4.818v-2.437h4.478v-2.948h-4.478v-16.608l-9.239,9.069v7.539h-11.847c1.7-1.587,3.647-3.571,5.838-5.952,2.192-2.381,4.251-4.799,6.178-7.255,1.852-2.267,3.514-4.402,4.988-6.405Z"/>
          </g>
        </g>
        <g>
          <rect class="cls-8" x="111.151" y="38.027" width="31.714" height="37"/>
          <g id="Layer1_0_MEMBER_0_FILL-2" data-name="Layer1 0 MEMBER 0 FILL">
            <path d="M132.796,42.425c1.362-1.929,2.232-3.31,2.61-4.143h-12.882c-.643,5.599-1.74,10.139-3.291,13.62-1.438,3.518-3.632,6.904-6.583,10.158v2.951h14.982v1.986c0,1.967-.34,3.291-1.021,3.972-.757.757-1.873,1.135-3.348,1.135v2.667h18.103v-2.497c-2.989,0-4.483-1.608-4.483-4.824v-2.44h4.483v-2.951h-4.483v-16.627l-9.25,9.08v7.548h-11.86c1.702-1.589,3.651-3.575,5.845-5.959,2.194-2.383,4.256-4.805,6.186-7.264,1.854-2.27,3.518-4.407,4.994-6.413Z"/>
          </g>
        </g>
      </g>
    </g>
    <g id="_0_Layer0_0_FILL_FL" data-name="   0 Layer0 0 FILL FL">
      <path d="M677.333,23.093c0-2.112-.571-3.878-1.714-5.297-1.143-1.419-2.735-2.129-4.778-2.129-1.87,0-3.341.485-4.414,1.454-1.004.935-1.506,2.077-1.506,3.428,0,1.212.45,2.285,1.35,3.22.866.9,2.025,1.35,3.479,1.35.589,0,1.262.018,1.933.178,1.257.301,1.836,1.279,1.806,2.937-.003,1.654-.539,3.194-1.61,4.622-1.031,1.43-2.537,2.624-4.518,3.583,3.22-1.108,5.695-2.926,7.426-5.453,1.696-2.527,2.545-5.159,2.545-7.894Z"/>
    </g>
    <g id="_0_Layer0_0_FILL_FL-2" data-name="   0 Layer0 0 FILL FL">
      <path d="M1207.849,23.093c0-2.112-.571-3.878-1.714-5.297-1.143-1.419-2.735-2.129-4.778-2.129-1.87,0-3.341.485-4.414,1.454-1.004.935-1.506,2.077-1.506,3.428,0,1.212.45,2.285,1.35,3.22.866.9,2.025,1.35,3.479,1.35.589,0,1.262.018,1.933.178,1.257.301,1.836,1.279,1.806,2.937-.003,1.654-.539,3.194-1.61,4.622-1.031,1.43-2.537,2.624-4.518,3.583,3.22-1.108,5.695-2.926,7.426-5.453,1.696-2.527,2.545-5.159,2.545-7.894Z"/>
    </g>
    <g class="cls-12">
      <g>
        <rect y="37.545" width="1209.949" height="2"/>
        <rect y="73.667" width="1209.949" height="2"/>
        <rect y="91.803" width="1209.949" height="2"/>
        <rect y="109.788" width="1209.949" height="2"/>
        <g>
          <rect x="1208.252" y="37.545" width="1.697" height="74.243"/>
          <rect x="679.375" y="37.545" width="1.697" height="74.244"/>
          <rect x="944.683" y="37.545" width="1.697" height="74.244"/>
        </g>
        <rect y="55.53" width="1209.949" height="2"/>
      </g>
      <rect x="413.285" y="37.545" width="1.697" height="74.244"/>
    </g>
    <g class="cls-4">
      <path d="M42.623,226.144c-3.623-10.948-9.226-7.872-12.993,1.803-4.615,8.872-1.855,21.78.159,28.424-7.452,7.167-21.24,23.486-20.151,31.447-.297,16.403,15.909,27.822,31.234,24.022l2.705,15.061c1.809,8.376-9.274,16.778-15.962,9.811,14.514.574,7.374-21.115-4.243-12.621-7.932,6.256,2.383,19.059,10.766,16.863,16.273-3.682,9.642-18.46,7.954-29.697,22.148-3.952,15.886-40.145-6.788-35.106l-2.015-10.712c11.756-9.228,14.713-25.542,9.333-39.296M41.298,229.856c3.938,9.197-2.889,20.419-10.023,25.349l-1.326-12.409c.878-5.13,5.785-20.903,11.349-12.939M22.79,276.788c3.217-4.49,6.311-7.866,9.28-10.129l1.803,9.758c-17.044,4.301-14.656,28.026,2.068,30.864v-.795c-13.341-2.126-15.175-20.523-1.008-23.121l5.409,26.091c-19.793,5.482-32.927-16.59-17.553-32.667M46.389,285.909c8.648,5.917,6.067,20.901-4.614,22.697l-5.144-25.243c3.535-.601,6.788.247,9.758,2.545Z"/>
      <path class="cls-3" d="M41.398,205.852c-.56-.581-1.281-.876-2.142-.876-.883,0-1.768.338-2.634,1.007-.879.7-1.42,1.613-1.607,2.714-.271,1.543.198,2.695,1.395,3.43l-.07.032c-.821.419-1.467.845-1.918,1.266-.478.448-.792,1.121-.932,1.996-.208,1.153.028,2.106.699,2.829.62.702,1.402,1.059,2.326,1.059,1.03,0,2.014-.379,2.923-1.126.923-.759,1.5-1.802,1.716-3.099.174-1.034.043-1.907-.393-2.595-.354-.54-.815-.933-1.372-1.172l.126-.104c.721-.34,1.286-.709,1.684-1.096.4-.406.667-.967.795-1.668.193-1.115-.007-1.989-.594-2.598ZM34.893,215.645c.096-.565.312-1.083.643-1.543.339-.49.695-.871,1.064-1.136.503-.383.715-.44.797-.44.296,0,.65.131,1.051.39.395.254.705.621.922,1.091l.01.019c.25.439.326.936.234,1.516-.153.892-.498,1.569-1.057,2.073-.557.52-1.185.783-1.867.783-.662,0-1.147-.244-1.49-.757-.355-.474-.456-1.126-.306-1.995ZM36.965,210.024c-.427-.534-.576-1.146-.457-1.87.123-.714.418-1.276.902-1.719.498-.461,1.023-.695,1.558-.695.646,0,1.117.235,1.441.721.329.473.416,1.088.268,1.878v.006c-.109.649-.415,1.239-.91,1.752-.481.496-.907.747-1.264.747-.593,0-1.096-.269-1.538-.822Z"/>
    </g>
    <g class="cls-10">
      <g id="musicScore_0_Layer0_0_FILL-2" data-name="musicScore      0 Layer0 0 FILL">
        <path d="M91.518,233.863v-5.354l-2.12.689v-7.103h-1.537v7.527l-4.982,1.696v-7.845h-1.484v8.322l-2.226.795v5.301l2.226-.689v7.633l-2.226.742v5.354l2.226-.689v7.209h1.484v-7.739l4.982-1.59v7.951h1.537v-8.481l2.12-.689v-5.354l-2.12.636v-7.58l2.12-.742M87.861,234.976v7.792l-4.982,1.537v-7.58l4.982-1.749Z"/>
      </g>
    </g>
    <g id="_0_Layer0_0_FILL_FL-3" data-name="   0 Layer0 0 FILL FL">
      <path d="M654.889,224.381c0-2.112-.571-3.878-1.714-5.297-1.143-1.419-2.735-2.129-4.778-2.129-1.87,0-3.341.485-4.414,1.454-1.004.935-1.506,2.077-1.506,3.428,0,1.212.45,2.285,1.35,3.22.866.9,2.025,1.35,3.479,1.35.589,0,1.262.018,1.933.178,1.257.301,1.836,1.279,1.806,2.937-.003,1.654-.539,3.194-1.61,4.622-1.031,1.43-2.537,2.624-4.518,3.583,3.22-1.108,5.695-2.926,7.426-5.453,1.696-2.527,2.545-5.159,2.545-7.894Z"/>
    </g>
    <g class="cls-1">
      <g>
        <rect y="238.833" width="1209.949" height="2"/>
        <rect y="274.955" width="1209.949" height="2"/>
        <rect y="293.091" width="1209.949" height="2"/>
        <rect y="311.076" width="1209.949" height="2"/>
        <g>
          <rect x="1208.252" y="238.833" width="1.697" height="74.243"/>
          <rect x="655.958" y="238.833" width="1.697" height="74.244"/>
          <rect x="931.516" y="238.833" width="1.697" height="74.244"/>
        </g>
        <rect y="256.818" width="1209.949" height="2"/>
      </g>
      <rect x="378.785" y="238.833" width="1.697" height="74.244"/>
    </g>
    <g class="cls-2">
      <path d="M42.623,426.555c-3.623-10.948-9.226-7.872-12.993,1.803-4.615,8.872-1.855,21.78.159,28.424-7.452,7.167-21.24,23.486-20.151,31.447-.297,16.403,15.909,27.822,31.234,24.022l2.705,15.061c1.809,8.376-9.274,16.778-15.962,9.811,14.514.574,7.374-21.115-4.243-12.621-7.932,6.256,2.383,19.059,10.766,16.863,16.273-3.682,9.642-18.46,7.954-29.697,22.148-3.952,15.886-40.145-6.788-35.106l-2.015-10.712c11.756-9.228,14.713-25.542,9.333-39.296M41.298,430.267c3.938,9.197-2.889,20.419-10.023,25.349l-1.326-12.409c.878-5.13,5.785-20.903,11.349-12.939M22.79,477.199c3.217-4.49,6.311-7.866,9.28-10.129l1.803,9.758c-17.044,4.301-14.656,28.026,2.068,30.864v-.795c-13.341-2.126-15.175-20.523-1.008-23.121l5.409,26.091c-19.793,5.482-32.927-16.59-17.553-32.667M46.389,486.32c8.648,5.917,6.067,20.901-4.614,22.697l-5.144-25.243c3.535-.601,6.788.247,9.758,2.545Z"/>
      <path class="cls-3" d="M41.398,406.263c-.56-.581-1.281-.876-2.142-.876-.883,0-1.768.338-2.634,1.007-.879.7-1.42,1.613-1.607,2.714-.271,1.543.198,2.695,1.395,3.43l-.07.032c-.821.419-1.467.845-1.918,1.266-.478.448-.792,1.121-.932,1.996-.208,1.153.028,2.106.699,2.829.62.702,1.402,1.059,2.326,1.059,1.03,0,2.014-.379,2.923-1.126.923-.759,1.5-1.802,1.716-3.099.174-1.034.043-1.907-.393-2.595-.354-.54-.815-.933-1.372-1.172l.126-.104c.721-.34,1.286-.709,1.684-1.096.4-.406.667-.967.795-1.668.193-1.115-.007-1.989-.594-2.598ZM34.893,416.056c.096-.565.312-1.083.643-1.543.339-.49.695-.871,1.064-1.136.503-.383.715-.44.797-.44.296,0,.65.131,1.051.39.395.254.705.621.922,1.091l.01.019c.25.439.326.936.234,1.516-.153.892-.498,1.569-1.057,2.073-.557.52-1.185.783-1.867.783-.662,0-1.147-.244-1.49-.757-.355-.474-.456-1.126-.306-1.995ZM36.965,410.436c-.427-.534-.576-1.146-.457-1.87.123-.714.418-1.276.902-1.719.498-.461,1.023-.695,1.558-.695.646,0,1.117.235,1.441.721.329.473.416,1.088.268,1.878v.006c-.109.649-.415,1.239-.91,1.752-.481.496-.907.747-1.264.747-.593,0-1.096-.269-1.538-.822Z"/>
    </g>
    <g class="cls-11">
      <g id="musicScore_0_Layer0_0_FILL-3" data-name="musicScore      0 Layer0 0 FILL">
        <path d="M91.518,434.274v-5.354l-2.12.689v-7.103h-1.537v7.527l-4.982,1.696v-7.845h-1.484v8.322l-2.226.795v5.301l2.226-.689v7.633l-2.226.742v5.354l2.226-.689v7.209h1.484v-7.739l4.982-1.59v7.951h1.537v-8.481l2.12-.689v-5.354l-2.12.636v-7.58l2.12-.742M87.861,435.387v7.792l-4.982,1.537v-7.58l4.982-1.749Z"/>
      </g>
    </g>
    <g id="_0_Layer0_0_FILL_FL-4" data-name="   0 Layer0 0 FILL FL">
      <path d="M654.889,424.793c0-2.112-.571-3.878-1.714-5.297-1.143-1.419-2.735-2.129-4.778-2.129-1.87,0-3.341.485-4.414,1.454-1.004.935-1.506,2.077-1.506,3.428,0,1.212.45,2.285,1.35,3.22.866.9,2.025,1.35,3.479,1.35.589,0,1.262.018,1.933.178,1.257.301,1.836,1.279,1.806,2.937-.003,1.654-.539,3.194-1.61,4.622-1.031,1.43-2.537,2.624-4.518,3.583,3.22-1.108,5.695-2.926,7.426-5.453,1.696-2.527,2.545-5.159,2.545-7.894Z"/>
    </g>
    <g id="_0_Layer0_0_FILL_FL-5" data-name="   0 Layer0 0 FILL FL">
      <path d="M1207.849,424.793c0-2.112-.571-3.878-1.714-5.297-1.143-1.419-2.735-2.129-4.778-2.129-1.87,0-3.341.485-4.414,1.454-1.004.935-1.506,2.077-1.506,3.428,0,1.212.45,2.285,1.35,3.22.866.9,2.025,1.35,3.479,1.35.589,0,1.262.018,1.933.178,1.257.301,1.836,1.279,1.806,2.937-.003,1.654-.539,3.194-1.61,4.622-1.031,1.43-2.537,2.624-4.518,3.583,3.22-1.108,5.695-2.926,7.426-5.453,1.696-2.527,2.545-5.159,2.545-7.894Z"/>
    </g>
    <g class="cls-5">
      <g>
        <rect y="439.245" width="1209.949" height="2"/>
        <rect y="475.366" width="1209.949" height="2"/>
        <rect y="493.503" width="1209.949" height="2"/>
        <rect y="511.488" width="1209.949" height="2"/>
        <g>
          <rect x="1208.252" y="439.245" width="1.697" height="74.243"/>
          <rect x="655.958" y="439.245" width="1.697" height="74.244"/>
          <rect x="931.516" y="439.245" width="1.697" height="74.244"/>
        </g>
        <rect y="457.23" width="1209.949" height="2"/>
      </g>
      <rect x="378.785" y="439.245" width="1.697" height="74.244"/>
    </g>
    <g class="cls-6">
      <path d="M42.623,626.966c-3.623-10.948-9.226-7.872-12.993,1.803-4.615,8.872-1.855,21.78.159,28.424-7.452,7.167-21.24,23.486-20.151,31.447-.297,16.403,15.909,27.822,31.234,24.022l2.705,15.061c1.809,8.376-9.274,16.778-15.962,9.811,14.514.574,7.374-21.115-4.243-12.621-7.932,6.256,2.383,19.059,10.766,16.863,16.273-3.682,9.642-18.46,7.954-29.697,22.148-3.952,15.886-40.145-6.788-35.106l-2.015-10.712c11.756-9.228,14.713-25.542,9.333-39.296M41.298,630.679c3.938,9.197-2.889,20.419-10.023,25.349l-1.326-12.409c.878-5.13,5.785-20.903,11.349-12.939M22.79,677.611c3.217-4.49,6.311-7.866,9.28-10.129l1.803,9.758c-17.044,4.301-14.656,28.026,2.068,30.864v-.795c-13.341-2.126-15.175-20.523-1.008-23.121l5.409,26.091c-19.793,5.482-32.927-16.59-17.553-32.667M46.389,686.732c8.648,5.917,6.067,20.901-4.614,22.697l-5.144-25.243c3.535-.601,6.788.247,9.758,2.545Z"/>
      <path class="cls-3" d="M41.398,606.674c-.56-.581-1.281-.876-2.142-.876-.883,0-1.768.338-2.634,1.007-.879.7-1.42,1.613-1.607,2.714-.271,1.543.198,2.695,1.395,3.43l-.07.032c-.821.419-1.467.845-1.918,1.266-.478.448-.792,1.121-.932,1.996-.208,1.153.028,2.106.699,2.829.62.702,1.402,1.059,2.326,1.059,1.03,0,2.014-.379,2.923-1.126.923-.759,1.5-1.802,1.716-3.099.174-1.034.043-1.907-.393-2.595-.354-.54-.815-.933-1.372-1.172l.126-.104c.721-.34,1.286-.709,1.684-1.096.4-.406.667-.967.795-1.668.193-1.115-.007-1.989-.594-2.598ZM34.893,616.468c.096-.565.312-1.083.643-1.543.339-.49.695-.871,1.064-1.136.503-.383.715-.44.797-.44.296,0,.65.131,1.051.39.395.254.705.621.922,1.091l.01.019c.25.439.326.936.234,1.516-.153.892-.498,1.569-1.057,2.073-.557.52-1.185.783-1.867.783-.662,0-1.147-.244-1.49-.757-.355-.474-.456-1.126-.306-1.995ZM36.965,610.847c-.427-.534-.576-1.146-.457-1.87.123-.714.418-1.276.902-1.719.498-.461,1.023-.695,1.558-.695.646,0,1.117.235,1.441.721.329.473.416,1.088.268,1.878v.006c-.109.649-.415,1.239-.91,1.752-.481.496-.907.747-1.264.747-.593,0-1.096-.269-1.538-.822Z"/>
    </g>
    <g class="cls-7">
      <g id="musicScore_0_Layer0_0_FILL-4" data-name="musicScore      0 Layer0 0 FILL">
        <path d="M91.518,634.686v-5.354l-2.12.689v-7.103h-1.537v7.527l-4.982,1.696v-7.845h-1.484v8.322l-2.226.795v5.301l2.226-.689v7.633l-2.226.742v5.354l2.226-.689v7.209h1.484v-7.739l4.982-1.59v7.951h1.537v-8.481l2.12-.689v-5.354l-2.12.636v-7.58l2.12-.742M87.861,635.799v7.792l-4.982,1.537v-7.58l4.982-1.749Z"/>
      </g>
    </g>
    <g id="_0_Layer0_0_FILL_FL-6" data-name="   0 Layer0 0 FILL FL">
      <path d="M654.889,625.204c0-2.112-.571-3.878-1.714-5.297-1.143-1.419-2.735-2.129-4.778-2.129-1.87,0-3.341.485-4.414,1.454-1.004.935-1.506,2.077-1.506,3.428,0,1.212.45,2.285,1.35,3.22.866.9,2.025,1.35,3.479,1.35.589,0,1.262.018,1.933.178,1.257.301,1.836,1.279,1.806,2.937-.003,1.654-.539,3.194-1.61,4.622-1.031,1.43-2.537,2.624-4.518,3.583,3.22-1.108,5.695-2.926,7.426-5.453,1.696-2.527,2.545-5.159,2.545-7.894Z"/>
    </g>
    <g class="cls-13">
      <g>
        <rect y="639.656" width="1209.949" height="2"/>
        <rect y="675.778" width="1209.949" height="2"/>
        <rect y="693.914" width="1209.949" height="2"/>
        <rect y="711.899" width="1209.949" height="2"/>
        <g>
          <rect x="1208.252" y="639.656" width="1.697" height="74.243"/>
          <rect x="655.958" y="639.656" width="1.697" height="74.244"/>
          <rect x="931.516" y="639.656" width="1.697" height="74.244"/>
        </g>
        <rect y="657.641" width="1209.949" height="2"/>
      </g>
      <rect x="378.785" y="639.656" width="1.697" height="74.244"/>
      <rect x="1201.711" y="639.656" width="8.238" height="74.243"/>
      <rect x="1190.569" y="639.656" width="1.697" height="74.244"/>
    </g>
  </g>
  <g id="_1_1" data-name="1/1">
    <path d="M198.341,50.837c-.195-.42-.365-.653-.595-.974-.03-.041-.073-.086-.11-.132-.719-.897-1.699-1.576-3.013-2.05-1.895-.684-3.969-.727-5.937-.294-4.073.896-7.201,3.09-9.384,6.584-1.026,1.642-1.676,3.524-1.692,5.456h-.005v.214s0,.01,0,.015c0,.002,0,.003,0,.005v60.445h2.921v-55.214c.388.226.8.435,1.265.607,2.08.769,4.362.742,6.52.235,3.978-.935,7.027-3.179,9.147-6.732.871-1.459,1.458-3.099,1.52-4.797.048-1.299-.165-2.422-.638-3.368Z"/>
  </g>
  <g id="_2_1" data-name="2/1">
    <path d="M254.674,68.648c-.195-.42-.365-.653-.595-.974-.03-.041-.073-.086-.11-.132-.719-.897-1.699-1.576-3.013-2.05-1.895-.684-3.969-.727-5.937-.294-4.073.896-7.201,3.091-9.384,6.584-1.026,1.642-1.676,3.524-1.692,5.456h-.005v.214s0,.01,0,.015c0,.002,0,.003,0,.005v60.445h2.921v-55.214c.388.226.8.435,1.265.607,2.08.769,4.362.742,6.52.235,3.978-.935,7.027-3.179,9.147-6.732.871-1.459,1.458-3.099,1.52-4.797.048-1.299-.165-2.422-.638-3.368Z"/>
  </g>
  <g id="_3_1" data-name="3/1">
    <g>
      <g>
        <path d="M292.322,78.529c-.007-.046-.009-.094-.016-.14.006.046.009.094.016.14Z"/>
        <path d="M292.423,78.991c-.034-.153-.077-.301-.101-.461.025.156.064.308.101.461Z"/>
        <path d="M292.306,78.39c-.034-.255-.054-.519-.063-.792.005.269.027.533.063.792Z"/>
      </g>
      <path d="M313.599,71.426c.04-1.298-.277-2.49-.975-3.567-1.26-1.961-3.294-2.941-6.102-2.941-.069-.003-.139.003-.208.001-.351-.007-.7.003-1.049.027-.655.034-1.309.103-1.951.245-4.073.896-7.202,3.091-9.384,6.584-1.028,1.645-1.679,3.532-1.692,5.468l-.003-.004v.145c0,.025-.002.051-.002.076,0,.008.001.016.002.024v60.433h2.921v-55.224c1.094.695,2.431,1.123,4.077,1.208.104.001.206-.007.309-.009,1.136.038,2.283-.093,3.397-.355,3.978-.935,7.027-3.179,9.147-6.732.871-1.459,1.458-3.099,1.52-4.797.007-.201-.003-.39-.008-.582ZM310.788,73.099c-1.332,1.782-3.258,3.404-5.778,4.866-2.484,1.497-4.662,2.299-6.533,2.406-1.8.178-2.97-.285-3.51-1.39-.504-1.105-.288-2.406.648-3.903.972-1.461,2.7-2.923,5.184-4.385,2.484-1.461,4.788-2.37,6.912-2.727,2.196-.356,3.6-.018,4.211,1.016.612.998.234,2.371-1.134,4.117Z"/>
    </g>
  </g>
  <g id="_1_2" data-name="1/2">
    <path d="M461.897,59.953c-.195-.42-.365-.653-.595-.974-.03-.041-.073-.086-.11-.132-.719-.897-1.699-1.576-3.013-2.05-1.895-.684-3.969-.727-5.937-.294-4.073.896-7.201,3.09-9.384,6.584-1.026,1.642-1.676,3.524-1.692,5.456h-.005v.214s0,.01,0,.015c0,.002,0,.003,0,.005v60.445h2.921v-55.214c.388.226.8.435,1.265.607,2.08.769,4.362.742,6.52.235,3.978-.935,7.027-3.179,9.147-6.732.871-1.459,1.458-3.099,1.52-4.797.048-1.299-.165-2.422-.638-3.368Z"/>
  </g>
  <g id="_2_2" data-name="2/2">
    <path d="M521.214,80.186s0-.01,0-.015c0-.002,0-.003,0-.005V19.722h-2.921v55.214c-.388-.226-.8-.435-1.265-.607-2.08-.769-4.362-.742-6.52-.235-3.978.935-7.027,3.179-9.147,6.732-.871,1.459-1.458,3.099-1.52,4.797-.048,1.299.165,2.422.638,3.368.195.42.365.653.595.974.03.041.073.086.11.132.719.897,1.7,1.576,3.013,2.05,1.895.684,3.969.727,5.937.294,4.073-.896,7.201-3.09,9.384-6.584,1.026-1.642,1.676-3.524,1.692-5.456h.005v-.214Z"/>
  </g>
  <g id="_3_2" data-name="3/2">
    <g>
      <g>
        <path d="M580.078,78.648c-.266-1.192-.827-2.178-1.69-2.954.322.312.619.652.874,1.039.389.601.653,1.242.816,1.915Z"/>
        <path d="M580.179,79.109c.007.046.009.094.016.14-.006-.046-.009-.094-.016-.14Z"/>
        <path d="M580.078,78.648c.034.153.077.301.101.461-.025-.156-.064-.308-.101-.461Z"/>
        <path d="M580.194,79.249c.034.255.054.519.063.792-.005-.269-.027-.533-.063-.792Z"/>
      </g>
      <path d="M580.266,80.255c0-.025.002-.051.002-.076,0-.008-.001-.016-.002-.024V19.722h-2.921v55.224c-1.094-.695-2.431-1.123-4.077-1.208-.104-.001-.206.007-.309.009-1.136-.038-2.283.093-3.397.355-3.978.935-7.027,3.179-9.147,6.732-.871,1.459-1.458,3.099-1.52,4.797-.007.201.003.39.008.582-.04,1.298.277,2.49.975,3.567,1.26,1.961,3.294,2.941,6.102,2.941.069.003.139-.003.208-.001.351.007.7-.003,1.049-.027.655-.034,1.309-.103,1.951-.245,4.073-.896,7.202-3.091,9.384-6.584,1.028-1.645,1.679-3.532,1.692-5.468l.003.004v-.145ZM576.885,82.562c-.972,1.461-2.7,2.923-5.184,4.385-2.484,1.461-4.788,2.37-6.912,2.727-2.196.356-3.6.018-4.211-1.016-.612-.998-.234-2.371,1.134-4.117,1.332-1.782,3.258-3.404,5.778-4.866,2.484-1.497,4.662-2.299,6.533-2.406,1.8-.178,2.97.285,3.51,1.39.504,1.105.288,2.406-.648,3.903Z"/>
    </g>
  </g>
  <g id="_1_3" data-name="1/3">
    <path d="M728.214,89.436s0-.01,0-.015c0-.002,0-.003,0-.005V28.972h-2.921v55.214c-.388-.226-.8-.435-1.265-.607-2.08-.769-4.362-.742-6.52-.235-3.978.935-7.027,3.179-9.147,6.732-.871,1.459-1.458,3.099-1.52,4.797-.048,1.299.165,2.422.638,3.368.195.42.365.653.595.974.03.041.073.086.11.132.719.897,1.7,1.576,3.013,2.05,1.895.684,3.969.727,5.937.294,4.073-.896,7.201-3.09,9.384-6.584,1.026-1.642,1.676-3.524,1.692-5.456h.005v-.214Z"/>
  </g>
  <g id="_2_3" data-name="2/3">
    <path d="M785.881,80.186s0-.01,0-.015c0-.002,0-.003,0-.005V19.722h-2.921v55.214c-.388-.226-.8-.435-1.265-.607-2.08-.769-4.362-.742-6.52-.235-3.978.935-7.027,3.179-9.147,6.732-.871,1.459-1.458,3.099-1.52,4.797-.048,1.299.165,2.422.638,3.368.195.42.365.653.595.974.03.041.073.086.11.132.719.897,1.7,1.576,3.013,2.05,1.895.684,3.969.727,5.937.294,4.073-.896,7.201-3.09,9.384-6.584,1.026-1.642,1.676-3.524,1.692-5.456h.005v-.214Z"/>
  </g>
  <g id="_3_3" data-name="3/3">
    <path d="M843.452,68.203c-.195-.42-.365-.653-.595-.974-.03-.041-.073-.086-.11-.132-.719-.897-1.699-1.576-3.013-2.05-1.895-.684-3.969-.727-5.937-.294-4.073.896-7.201,3.09-9.384,6.584-1.026,1.642-1.676,3.524-1.692,5.456h-.005v.214s0,.01,0,.015c0,.002,0,.003,0,.005v60.445h2.921v-55.214c.388.226.8.435,1.265.607,2.08.769,4.362.742,6.52.235,3.978-.935,7.027-3.179,9.147-6.732.871-1.459,1.458-3.099,1.52-4.797.048-1.299-.165-2.422-.638-3.368Z"/>
  </g>
  <g id="_4_3" data-name="4/3">
    <path d="M901.785,59.953c-.195-.42-.365-.653-.595-.974-.03-.041-.073-.086-.11-.132-.719-.897-1.699-1.576-3.013-2.05-1.895-.684-3.969-.727-5.937-.294-4.073.896-7.201,3.09-9.384,6.584-1.026,1.642-1.676,3.524-1.692,5.456h-.005v.214s0,.01,0,.015c0,.002,0,.003,0,.005v60.445h2.921v-55.214c.388.226.8.435,1.265.607,2.08.769,4.362.742,6.52.235,3.978-.935,7.027-3.179,9.147-6.732.871-1.459,1.458-3.099,1.52-4.797.048-1.299-.165-2.422-.638-3.368Z"/>
  </g>
  <g id="_1_4" data-name="1/4">
    <path d="M991.577,50.837c-.195-.42-.365-.653-.595-.974-.03-.041-.073-.086-.11-.132-.719-.897-1.699-1.576-3.013-2.05-1.895-.684-3.969-.727-5.937-.294-4.073.896-7.201,3.09-9.384,6.584-1.026,1.642-1.676,3.524-1.692,5.456h-.005v.214s0,.01,0,.015c0,.002,0,.003,0,.005v60.445h2.921v-55.214c.388.226.8.435,1.265.607,2.08.769,4.362.742,6.52.235,3.978-.935,7.027-3.179,9.147-6.732.871-1.459,1.458-3.099,1.52-4.797.048-1.299-.165-2.422-.638-3.368Z"/>
  </g>
  <g id="_2_4" data-name="2/4">
    <path d="M1050.41,50.837c-.195-.42-.365-.653-.595-.974-.03-.041-.073-.086-.11-.132-.719-.897-1.699-1.576-3.013-2.05-1.895-.684-3.969-.727-5.937-.294-4.073.896-7.201,3.09-9.384,6.584-1.026,1.642-1.676,3.524-1.692,5.456h-.005v.214s0,.01,0,.015c0,.002,0,.003,0,.005v60.445h2.921v-55.214c.388.226.8.435,1.265.607,2.08.769,4.362.742,6.52.235,3.978-.935,7.027-3.179,9.147-6.732.871-1.459,1.458-3.099,1.52-4.797.048-1.299-.165-2.422-.638-3.368Z"/>
  </g>
  <g id="_3_4" data-name="3/4">
    <g>
      <g>
        <path d="M1087.905,60.719c-.007-.046-.009-.094-.016-.14.006.046.009.094.016.14Z"/>
        <path d="M1088.006,61.18c-.034-.153-.077-.301-.101-.461.025.156.064.308.101.461Z"/>
        <path d="M1087.889,60.579c-.034-.255-.054-.519-.063-.792.005.269.027.533.063.792Z"/>
      </g>
      <path d="M1109.182,53.615c.04-1.298-.277-2.49-.975-3.567-1.26-1.961-3.294-2.941-6.102-2.941-.069-.003-.139.003-.208.001-.351-.007-.7.003-1.049.027-.655.034-1.309.103-1.951.245-4.073.896-7.202,3.091-9.384,6.584-1.028,1.645-1.679,3.532-1.692,5.468l-.003-.004v.145c0,.025-.002.051-.002.076,0,.008.001.016.002.024v60.433h2.921v-55.224c1.094.695,2.431,1.123,4.077,1.208.104.001.206-.007.309-.009,1.136.038,2.283-.093,3.397-.355,3.978-.935,7.027-3.179,9.147-6.732.871-1.459,1.458-3.099,1.52-4.797.007-.201-.003-.39-.008-.582ZM1106.371,55.288c-1.332,1.782-3.258,3.404-5.778,4.866-2.484,1.497-4.662,2.299-6.533,2.406-1.8.178-2.97-.285-3.51-1.39-.504-1.105-.288-2.406.648-3.903.972-1.461,2.7-2.923,5.184-4.385,2.484-1.461,4.788-2.37,6.912-2.727,2.196-.356,3.6-.018,4.211,1.016.612.998.234,2.371-1.134,4.117Z"/>
    </g>
  </g>
  <g id="_1_5" data-name="1/5">
    <path d="M150.886,252.125c-.195-.42-.365-.653-.595-.974-.03-.041-.073-.086-.11-.132-.719-.897-1.699-1.576-3.013-2.05-1.895-.684-3.969-.727-5.937-.294-4.073.896-7.201,3.09-9.384,6.584-1.026,1.642-1.676,3.524-1.692,5.456h-.005v.214s0,.01,0,.015c0,.002,0,.003,0,.005v60.445h2.921v-55.214c.388.226.8.435,1.265.607,2.08.769,4.362.742,6.52.235,3.978-.935,7.027-3.179,9.147-6.732.871-1.459,1.458-3.099,1.52-4.797.048-1.299-.165-2.422-.638-3.368Z"/>
  </g>
  <g id="_2_5" data-name="2/5">
    <path d="M212.053,269.936c-.195-.42-.365-.653-.595-.974-.03-.041-.073-.086-.11-.132-.719-.897-1.699-1.576-3.013-2.05-1.895-.684-3.969-.727-5.937-.294-4.073.896-7.201,3.091-9.384,6.584-1.026,1.642-1.676,3.524-1.692,5.456h-.005v.214s0,.01,0,.015c0,.002,0,.003,0,.005v60.445h2.921v-55.214c.388.226.8.435,1.265.607,2.08.769,4.362.742,6.52.235,3.978-.935,7.027-3.179,9.147-6.732.871-1.459,1.458-3.099,1.52-4.797.048-1.299-.165-2.422-.638-3.368Z"/>
  </g>
  <g id="_3_5" data-name="3/5">
    <g>
      <g>
        <path d="M253.367,279.818c-.007-.046-.009-.094-.016-.14.006.046.009.094.016.14Z"/>
        <path d="M253.468,280.279c-.034-.153-.077-.301-.101-.461.025.156.064.308.101.461Z"/>
        <path d="M253.352,279.678c-.034-.255-.054-.519-.063-.792.005.269.027.533.063.792Z"/>
      </g>
      <path d="M274.644,272.714c.04-1.298-.277-2.49-.975-3.567-1.26-1.961-3.294-2.941-6.102-2.941-.069-.003-.139.003-.208.001-.351-.007-.7.003-1.049.027-.655.034-1.309.103-1.951.245-4.073.896-7.202,3.091-9.384,6.584-1.028,1.645-1.679,3.532-1.692,5.468l-.003-.004v.145c0,.025-.002.051-.002.076,0,.008.001.016.002.024v60.433h2.921v-55.224c1.094.695,2.431,1.123,4.077,1.208.104.001.206-.007.309-.009,1.136.038,2.283-.093,3.397-.355,3.978-.935,7.027-3.179,9.147-6.732.871-1.459,1.458-3.099,1.52-4.797.007-.201-.003-.39-.008-.582ZM271.833,274.387c-1.332,1.782-3.258,3.404-5.778,4.866-2.484,1.497-4.662,2.299-6.533,2.406-1.8.178-2.97-.285-3.51-1.39-.504-1.105-.288-2.406.648-3.903.972-1.461,2.7-2.923,5.184-4.385,2.484-1.461,4.788-2.37,6.912-2.727,2.196-.356,3.6-.018,4.211,1.016.612.998.234,2.371-1.134,4.117Z"/>
    </g>
  </g>
  <g id="_1_6" data-name="1/6">
    <path d="M426.925,261.241c-.195-.42-.365-.653-.595-.974-.03-.041-.073-.086-.11-.132-.719-.897-1.699-1.576-3.013-2.05-1.895-.684-3.969-.727-5.937-.294-4.073.896-7.201,3.09-9.384,6.584-1.026,1.642-1.676,3.524-1.692,5.456h-.005v.214s0,.01,0,.015c0,.002,0,.003,0,.005v60.445h2.921v-55.214c.388.226.8.435,1.265.607,2.08.769,4.362.742,6.52.235,3.978-.935,7.027-3.179,9.147-6.732.871-1.459,1.458-3.099,1.52-4.797.048-1.299-.165-2.422-.638-3.368Z"/>
  </g>
  <g id="_2_6" data-name="2/6">
    <path d="M491.243,281.475s0-.01,0-.015c0-.002,0-.003,0-.005v-60.445h-2.921v55.214c-.388-.226-.8-.435-1.265-.607-2.08-.769-4.362-.742-6.52-.235-3.978.935-7.027,3.179-9.147,6.732-.871,1.459-1.458,3.099-1.52,4.797-.048,1.299.165,2.422.638,3.368.195.42.365.653.595.974.03.041.073.086.11.132.719.897,1.7,1.576,3.013,2.05,1.895.684,3.969.727,5.937.294,4.073-.896,7.201-3.09,9.384-6.584,1.026-1.642,1.676-3.524,1.692-5.456h.005v-.214Z"/>
  </g>
  <g id="_3_6" data-name="3/6">
    <g>
      <g>
        <path d="M553.773,279.937c-.266-1.192-.827-2.178-1.69-2.954.322.312.619.652.874,1.039.389.601.653,1.242.816,1.915Z"/>
        <path d="M553.874,280.398c.007.046.009.094.016.14-.006-.046-.009-.094-.016-.14Z"/>
        <path d="M553.773,279.937c.034.153.077.301.101.461-.025-.156-.064-.308-.101-.461Z"/>
        <path d="M553.89,280.538c.034.255.054.519.063.792-.005-.269-.027-.533-.063-.792Z"/>
      </g>
      <path d="M553.961,281.544c0-.025.002-.051.002-.076,0-.008-.001-.016-.002-.024v-60.433h-2.921v55.224c-1.094-.695-2.431-1.123-4.077-1.208-.104-.001-.206.007-.309.009-1.136-.038-2.283.093-3.397.355-3.978.935-7.027,3.179-9.147,6.732-.871,1.459-1.458,3.099-1.52,4.797-.007.201.003.39.008.582-.04,1.298.277,2.49.975,3.567,1.26,1.961,3.294,2.941,6.102,2.941.069.003.139-.003.208-.001.351.007.7-.003,1.049-.027.655-.034,1.309-.103,1.951-.245,4.073-.896,7.202-3.091,9.384-6.584,1.028-1.645,1.679-3.532,1.692-5.468l.003.004v-.145ZM550.58,283.85c-.972,1.461-2.7,2.923-5.184,4.385-2.484,1.461-4.788,2.37-6.912,2.727-2.196.356-3.6.018-4.211-1.016-.612-.998-.234-2.371,1.134-4.117,1.332-1.782,3.258-3.404,5.778-4.866,2.484-1.497,4.662-2.299,6.533-2.406,1.8-.178,2.97.285,3.51,1.39.504,1.105.288,2.406-.648,3.903Z"/>
    </g>
  </g>
  <g id="_1_7" data-name="1/7">
    <path d="M706.608,290.725s0-.01,0-.015c0-.002,0-.003,0-.005v-60.445h-2.921v55.214c-.388-.226-.8-.435-1.265-.607-2.08-.769-4.362-.742-6.52-.235-3.978.935-7.027,3.179-9.147,6.732-.871,1.459-1.458,3.099-1.52,4.797-.048,1.299.165,2.422.638,3.368.195.42.365.653.595.974.03.041.073.086.11.132.719.897,1.7,1.576,3.013,2.05,1.895.684,3.969.727,5.937.294,4.073-.896,7.201-3.09,9.384-6.584,1.026-1.642,1.676-3.524,1.692-5.456h.005v-.214Z"/>
  </g>
  <g id="_2_7" data-name="2/7">
    <path d="M764.903,269.491c-.195-.42-.365-.653-.595-.974-.03-.041-.073-.086-.11-.132-.719-.897-1.699-1.576-3.013-2.05-1.895-.684-3.969-.727-5.937-.294-4.073.896-7.201,3.09-9.384,6.584-1.026,1.642-1.676,3.524-1.692,5.456h-.005v.214s0,.01,0,.015c0,.002,0,.003,0,.005v60.445h2.921v-55.214c.388.226.8.435,1.265.607,2.08.769,4.362.742,6.52.235,3.978-.935,7.027-3.179,9.147-6.732.871-1.459,1.458-3.099,1.52-4.797.048-1.299-.165-2.422-.638-3.368Z"/>
  </g>
  <g id="_3_7" data-name="3/7">
    <path d="M826.707,252.125c-.195-.42-.365-.653-.595-.974-.03-.041-.073-.086-.11-.132-.719-.897-1.699-1.576-3.013-2.05-1.895-.684-3.969-.727-5.937-.294-4.073.896-7.201,3.09-9.384,6.584-1.026,1.642-1.676,3.524-1.692,5.456h-.005v.214s0,.01,0,.015c0,.002,0,.003,0,.005v60.445h2.921v-55.214c.388.226.8.435,1.265.607,2.08.769,4.362.742,6.52.235,3.978-.935,7.027-3.179,9.147-6.732.871-1.459,1.458-3.099,1.52-4.797.048-1.299-.165-2.422-.638-3.368Z"/>
  </g>
  <g id="_4_7" data-name="4/7">
    <path d="M886.707,252.125c-.195-.42-.365-.653-.595-.974-.03-.041-.073-.086-.11-.132-.719-.897-1.699-1.576-3.013-2.05-1.895-.684-3.969-.727-5.937-.294-4.073.896-7.201,3.09-9.384,6.584-1.026,1.642-1.676,3.524-1.692,5.456h-.005v.214s0,.01,0,.015c0,.002,0,.003,0,.005v60.445h2.921v-55.214c.388.226.8.435,1.265.607,2.08.769,4.362.742,6.52.235,3.978-.935,7.027-3.179,9.147-6.732.871-1.459,1.458-3.099,1.52-4.797.048-1.299-.165-2.422-.638-3.368Z"/>
  </g>
  <g id="_1_8" data-name="1/8">
    <g>
      <g>
        <g>
          <path d="M983.5,290.899c.007.046.009.094.016.14-.006-.046-.009-.094-.016-.14Z"/>
          <path d="M983.399,290.438c.034.153.077.301.101.461-.025-.156-.064-.308-.101-.461Z"/>
          <path d="M983.515,291.038c.034.255.054.519.063.792-.005-.269-.027-.533-.063-.792Z"/>
        </g>
        <path d="M983.587,292.045c0-.025.002-.051.002-.076,0-.008-.001-.016-.002-.024v-60.433h-2.921v55.224c-1.094-.695-2.431-1.123-4.078-1.208-.104-.001-.206.007-.309.009-1.136-.038-2.283.093-3.397.355-3.978.935-7.027,3.179-9.147,6.732-.871,1.459-1.458,3.099-1.52,4.797-.007.201.003.39.008.582-.04,1.298.277,2.49.975,3.567,1.26,1.961,3.294,2.941,6.102,2.941.069.003.139-.003.208-.001.351.007.7-.003,1.049-.027.655-.034,1.309-.103,1.951-.245,4.073-.896,7.202-3.091,9.384-6.584,1.028-1.645,1.679-3.532,1.692-5.468l.004.004v-.145ZM980.206,294.351c-.972,1.461-2.7,2.923-5.184,4.385-2.484,1.461-4.788,2.37-6.912,2.727-2.196.356-3.6.018-4.211-1.016-.612-.998-.234-2.371,1.134-4.117,1.332-1.782,3.258-3.404,5.778-4.866,2.484-1.497,4.662-2.299,6.533-2.406,1.8-.178,2.97.285,3.51,1.39.504,1.105.288,2.406-.648,3.903Z"/>
      </g>
      <circle cx="994.674" cy="285.617" r="3.2"/>
    </g>
  </g>
  <g id="_2_8" data-name="2/8">
    <path d="M1151.434,268.1l2.851-4.322-11.954-16.552-.874.69,2.253,4.138c.013.025.027.051.04.076,1.827,3.468,2.194,7.549,1.041,11.295-1.137,3.695-2.601,6.448-4.392,8.261-.398,1.502,2.651,5.717,9.149,12.644l-3.391-.412c-1.368-.166-2.781,0-4.006.633-2.103,1.086-3.086,2.974-2.948,5.664,0,.184.015.383.046.598.644,2.82,2.259,4.845,4.368,7.035l3.862,3.218.92-.598c-.858-.667-1.716-1.974-2.574-3.921-.682-1.546-.742-3.361.096-4.829.362-.634.836-1.135,1.421-1.503.736-.46,1.64-.705,2.713-.736,1.318-.092,3.142.383,5.471,1.425l.092-1.149-3.402-4.506c-.552-.644-1.046-1.36-1.481-2.15-2.322-4.207-2.256-9.364-.059-13.637.233-.454.486-.908.759-1.362Z"/>
  </g>
  <g id="_1_9" data-name="1/9">
    <path d="M152.531,481.886s0-.01,0-.015c0-.002,0-.003,0-.005v-60.445h-2.921v55.214c-.388-.226-.8-.435-1.265-.607-2.08-.769-4.362-.742-6.52-.235-3.978.935-7.027,3.179-9.147,6.732-.871,1.459-1.458,3.099-1.52,4.797-.048,1.299.165,2.422.638,3.368.195.42.365.653.595.974.03.041.073.086.11.132.719.897,1.7,1.576,3.013,2.05,1.895.684,3.969.727,5.937.294,4.073-.896,7.201-3.09,9.384-6.584,1.026-1.642,1.676-3.524,1.692-5.456h.005v-.214Z"/>
  </g>
  <g id="_2_9" data-name="2/9">
    <path d="M214.697,481.886s0-.01,0-.015c0-.002,0-.003,0-.005v-60.445h-2.921v55.214c-.388-.226-.8-.435-1.265-.607-2.08-.769-4.362-.742-6.52-.235-3.978.935-7.027,3.179-9.147,6.732-.871,1.459-1.458,3.099-1.52,4.797-.048,1.299.165,2.422.638,3.368.195.42.365.653.595.974.03.041.073.086.11.132.719.897,1.7,1.576,3.013,2.05,1.895.684,3.969.727,5.937.294,4.073-.896,7.201-3.09,9.384-6.584,1.026-1.642,1.676-3.524,1.692-5.456h.005v-.214Z"/>
  </g>
  <g id="_3_9" data-name="3/9">
    <path d="M276.658,481.886s0-.01,0-.015c0-.002,0-.003,0-.005v-60.445h-2.921v55.214c-.388-.226-.8-.435-1.265-.607-2.08-.769-4.362-.742-6.52-.235-3.978.935-7.027,3.179-9.147,6.732-.871,1.459-1.458,3.099-1.52,4.797-.048,1.299.165,2.422.638,3.368.195.42.365.653.595.974.03.041.073.086.11.132.719.897,1.7,1.576,3.013,2.05,1.895.684,3.969.727,5.937.294,4.073-.896,7.201-3.09,9.384-6.584,1.026-1.642,1.676-3.524,1.692-5.456h.005v-.214Z"/>
  </g>
  <g id="_4_9" data-name="4/9">
    <path d="M337.547,481.886s0-.01,0-.015c0-.002,0-.003,0-.005v-60.445h-2.921v55.214c-.388-.226-.8-.435-1.265-.607-2.08-.769-4.362-.742-6.52-.235-3.978.935-7.027,3.179-9.147,6.732-.871,1.459-1.458,3.099-1.52,4.797-.048,1.299.165,2.422.638,3.368.195.42.365.653.595.974.03.041.073.086.11.132.719.897,1.7,1.576,3.013,2.05,1.895.684,3.969.727,5.937.294,4.073-.896,7.201-3.09,9.384-6.584,1.026-1.642,1.676-3.524,1.692-5.456h.005v-.214Z"/>
  </g>
  <g id="_1_10" data-name="1/10">
    <path d="M428.519,481.886s0-.01,0-.015c0-.002,0-.003,0-.005v-60.445h-2.921v55.214c-.388-.226-.8-.435-1.265-.607-2.08-.769-4.362-.742-6.52-.235-3.978.935-7.027,3.179-9.147,6.732-.871,1.459-1.458,3.099-1.52,4.797-.048,1.299.165,2.422.638,3.368.195.42.365.653.595.974.03.041.073.086.11.132.719.897,1.7,1.576,3.013,2.05,1.895.684,3.969.727,5.937.294,4.073-.896,7.201-3.09,9.384-6.584,1.026-1.642,1.676-3.524,1.692-5.456h.005v-.214Z"/>
  </g>
  <g id="_2_10" data-name="2/10">
    <path d="M487.821,469.903c-.195-.42-.365-.653-.595-.974-.03-.041-.073-.086-.11-.132-.719-.897-1.699-1.576-3.013-2.05-1.895-.684-3.969-.727-5.937-.294-4.073.896-7.201,3.09-9.384,6.584-1.026,1.642-1.676,3.524-1.692,5.456h-.005v.214s0,.01,0,.015c0,.002,0,.003,0,.005v60.445h2.921v-55.214c.388.226.8.435,1.265.607,2.08.769,4.362.742,6.52.235,3.978-.935,7.027-3.179,9.147-6.732.871-1.459,1.458-3.099,1.52-4.797.048-1.299-.165-2.422-.638-3.368Z"/>
  </g>
  <g id="_3_10" data-name="3/10">
    <g>
      <g>
        <path d="M528.391,471.312c-.007-.046-.009-.094-.016-.14.006.046.009.094.016.14Z"/>
        <path d="M528.492,471.774c-.034-.153-.077-.301-.101-.461.025.156.064.308.101.461Z"/>
        <path d="M528.376,471.173c-.034-.255-.054-.519-.063-.792.005.269.027.533.063.792Z"/>
      </g>
      <path d="M549.668,464.209c.04-1.298-.277-2.49-.975-3.567-1.26-1.961-3.294-2.941-6.102-2.941-.069-.003-.139.003-.208.001-.351-.007-.7.003-1.049.027-.655.034-1.309.103-1.951.245-4.073.896-7.202,3.091-9.384,6.584-1.028,1.645-1.679,3.532-1.692,5.468l-.003-.004v.145c0,.025-.002.051-.002.076,0,.008.001.016.002.024v60.433h2.921v-55.224c1.094.695,2.431,1.123,4.077,1.208.104.001.206-.007.309-.009,1.136.038,2.283-.093,3.397-.355,3.978-.935,7.027-3.179,9.147-6.732.871-1.459,1.458-3.099,1.52-4.797.007-.201-.003-.39-.008-.582ZM546.858,465.882c-1.332,1.782-3.258,3.404-5.778,4.866-2.484,1.497-4.662,2.299-6.533,2.406-1.8.178-2.97-.285-3.51-1.39-.504-1.105-.288-2.406.648-3.903.972-1.461,2.7-2.923,5.184-4.385,2.484-1.461,4.788-2.37,6.912-2.727,2.196-.356,3.6-.018,4.211,1.016.612.998.234,2.371-1.134,4.117Z"/>
    </g>
  </g>
  <g id="_1_11" data-name="1/11">
    <path d="M703.099,469.903c-.195-.42-.365-.653-.595-.974-.03-.041-.073-.086-.11-.132-.719-.897-1.699-1.576-3.013-2.05-1.895-.684-3.969-.727-5.937-.294-4.073.896-7.201,3.09-9.384,6.584-1.026,1.642-1.676,3.524-1.692,5.456h-.005v.214s0,.01,0,.015c0,.002,0,.003,0,.005v60.445h2.921v-55.214c.388.226.8.435,1.265.607,2.08.769,4.362.742,6.52.235,3.978-.935,7.027-3.179,9.147-6.732.871-1.459,1.458-3.099,1.52-4.797.048-1.299-.165-2.422-.638-3.368Z"/>
  </g>
  <g id="_2_11" data-name="2/11">
    <path d="M764.903,469.903c-.195-.42-.365-.653-.595-.974-.03-.041-.073-.086-.11-.132-.719-.897-1.699-1.576-3.013-2.05-1.895-.684-3.969-.727-5.937-.294-4.073.896-7.201,3.09-9.384,6.584-1.026,1.642-1.676,3.524-1.692,5.456h-.005v.214s0,.01,0,.015c0,.002,0,.003,0,.005v60.445h2.921v-55.214c.388.226.8.435,1.265.607,2.08.769,4.362.742,6.52.235,3.978-.935,7.027-3.179,9.147-6.732.871-1.459,1.458-3.099,1.52-4.797.048-1.299-.165-2.422-.638-3.368Z"/>
  </g>
  <g id="_3_11" data-name="3/11">
    <path d="M826.707,469.903c-.195-.42-.365-.653-.595-.974-.03-.041-.073-.086-.11-.132-.719-.897-1.699-1.576-3.013-2.05-1.895-.684-3.969-.727-5.937-.294-4.073.896-7.201,3.09-9.384,6.584-1.026,1.642-1.676,3.524-1.692,5.456h-.005v.214s0,.01,0,.015c0,.002,0,.003,0,.005v60.445h2.921v-55.214c.388.226.8.435,1.265.607,2.08.769,4.362.742,6.52.235,3.978-.935,7.027-3.179,9.147-6.732.871-1.459,1.458-3.099,1.52-4.797.048-1.299-.165-2.422-.638-3.368Z"/>
  </g>
  <g id="_4_11" data-name="4/11">
    <path d="M888.512,469.903c-.195-.42-.365-.653-.595-.974-.03-.041-.073-.086-.11-.132-.719-.897-1.699-1.576-3.013-2.05-1.895-.684-3.969-.727-5.937-.294-4.073.896-7.201,3.09-9.384,6.584-1.026,1.642-1.676,3.524-1.692,5.456h-.005v.214s0,.01,0,.015c0,.002,0,.003,0,.005v60.445h2.921v-55.214c.388.226.8.435,1.265.607,2.08.769,4.362.742,6.52.235,3.978-.935,7.027-3.179,9.147-6.732.871-1.459,1.458-3.099,1.52-4.797.048-1.299-.165-2.422-.638-3.368Z"/>
  </g>
  <g id="_1_12" data-name="1/12">
    <path d="M980.773,469.903c-.195-.42-.365-.653-.595-.974-.03-.041-.073-.086-.11-.132-.719-.897-1.699-1.576-3.013-2.05-1.895-.684-3.969-.727-5.937-.294-4.073.896-7.201,3.09-9.384,6.584-1.026,1.642-1.676,3.524-1.692,5.456h-.005v.214s0,.01,0,.015c0,.002,0,.003,0,.005v60.445h2.921v-55.214c.388.226.8.435,1.265.607,2.08.769,4.362.742,6.52.235,3.978-.935,7.027-3.179,9.147-6.732.871-1.459,1.458-3.099,1.52-4.797.048-1.299-.165-2.422-.638-3.368Z"/>
  </g>
  <g id="_2_12" data-name="2/12">
    <path d="M1041.809,461.43c-.195-.42-.365-.653-.595-.974-.03-.041-.073-.086-.11-.132-.719-.897-1.699-1.576-3.013-2.05-1.895-.684-3.969-.727-5.937-.294-4.073.896-7.201,3.09-9.384,6.584-1.026,1.642-1.676,3.524-1.692,5.456h-.005v.214s0,.01,0,.015c0,.002,0,.003,0,.005v60.445h2.921v-55.214c.388.226.8.435,1.265.607,2.08.769,4.362.742,6.52.235,3.978-.935,7.027-3.179,9.147-6.732.871-1.459,1.458-3.099,1.52-4.797.048-1.299-.165-2.422-.638-3.368Z"/>
  </g>
  <g id="_3_12" data-name="3/12">
    <g>
      <g>
        <path d="M1082.198,462.418c-.007-.046-.009-.094-.016-.14.006.046.009.094.016.14Z"/>
        <path d="M1082.299,462.879c-.034-.153-.077-.301-.101-.461.025.156.064.308.101.461Z"/>
        <path d="M1082.183,462.278c-.034-.255-.054-.519-.063-.792.005.269.027.533.063.792Z"/>
      </g>
      <path d="M1103.475,455.315c.04-1.298-.277-2.49-.975-3.567-1.26-1.961-3.294-2.941-6.102-2.941-.069-.003-.139.003-.208.001-.351-.007-.7.003-1.049.027-.655.034-1.309.103-1.951.245-4.073.896-7.202,3.091-9.384,6.584-1.028,1.645-1.679,3.532-1.692,5.468l-.003-.004v.145c0,.025-.002.051-.002.076,0,.008.001.016.002.024v60.433h2.921v-55.224c1.094.695,2.431,1.123,4.077,1.208.104.001.206-.007.309-.009,1.136.038,2.283-.093,3.397-.355,3.978-.935,7.027-3.179,9.147-6.732.871-1.459,1.458-3.099,1.52-4.797.007-.201-.003-.39-.008-.582ZM1100.665,456.988c-1.332,1.782-3.258,3.404-5.778,4.866-2.484,1.497-4.662,2.299-6.533,2.406-1.8.178-2.97-.285-3.51-1.39-.504-1.105-.288-2.406.648-3.903.972-1.461,2.7-2.923,5.184-4.385,2.484-1.461,4.788-2.37,6.912-2.727,2.196-.356,3.6-.018,4.211,1.016.612.998.234,2.371-1.134,4.117Z"/>
    </g>
  </g>
  <g id="_1_13" data-name="1/13">
    <path d="M149.886,652.948c-.195-.42-.365-.653-.595-.974-.03-.041-.073-.086-.11-.132-.719-.897-1.699-1.576-3.013-2.05-1.895-.684-3.969-.727-5.937-.294-4.073.896-7.201,3.09-9.384,6.584-1.026,1.642-1.676,3.524-1.692,5.456h-.005v.214s0,.01,0,.015c0,.002,0,.003,0,.005v60.445h2.921v-55.214c.388.226.8.435,1.265.607,2.08.769,4.362.742,6.52.235,3.978-.935,7.027-3.179,9.147-6.732.871-1.459,1.458-3.099,1.52-4.797.048-1.299-.165-2.422-.638-3.368Z"/>
  </g>
  <g id="_2_13" data-name="2/13">
    <path d="M211.053,670.759c-.195-.42-.365-.653-.595-.974-.03-.041-.073-.086-.11-.132-.719-.897-1.699-1.576-3.013-2.05-1.895-.684-3.969-.727-5.937-.294-4.073.896-7.201,3.091-9.384,6.584-1.026,1.642-1.676,3.524-1.692,5.456h-.005v.214s0,.01,0,.015c0,.002,0,.003,0,.005v60.445h2.921v-55.214c.388.226.8.435,1.265.607,2.08.769,4.362.742,6.52.235,3.978-.935,7.027-3.179,9.147-6.732.871-1.459,1.458-3.099,1.52-4.797.048-1.299-.165-2.422-.638-3.368Z"/>
  </g>
  <g id="_3_13" data-name="3/13">
    <g>
      <g>
        <path d="M252.367,680.641c-.007-.046-.009-.094-.016-.14.006.046.009.094.016.14Z"/>
        <path d="M252.468,681.102c-.034-.153-.077-.301-.101-.461.025.156.064.308.101.461Z"/>
        <path d="M252.352,680.501c-.034-.255-.054-.519-.063-.792.005.269.027.533.063.792Z"/>
      </g>
      <path d="M273.644,673.537c.04-1.298-.277-2.49-.975-3.567-1.26-1.961-3.294-2.941-6.102-2.941-.069-.003-.139.003-.208.001-.351-.007-.7.003-1.049.027-.655.034-1.309.103-1.951.245-4.073.896-7.202,3.091-9.384,6.584-1.028,1.645-1.679,3.532-1.692,5.468l-.003-.004v.145c0,.025-.002.051-.002.076,0,.008.001.016.002.024v60.433h2.921v-55.224c1.094.695,2.431,1.123,4.077,1.208.104.001.206-.007.309-.009,1.136.038,2.283-.093,3.397-.355,3.978-.935,7.027-3.179,9.147-6.732.871-1.459,1.458-3.099,1.52-4.797.007-.201-.003-.39-.008-.582ZM270.833,675.21c-1.332,1.782-3.258,3.404-5.778,4.866-2.484,1.497-4.662,2.299-6.533,2.406-1.8.178-2.97-.285-3.51-1.39-.504-1.105-.288-2.406.648-3.903.972-1.461,2.7-2.923,5.184-4.385,2.484-1.461,4.788-2.37,6.912-2.727,2.196-.356,3.6-.018,4.211,1.016.612.998.234,2.371-1.134,4.117Z"/>
    </g>
  </g>
  <g id="_1_14" data-name="1/14">
    <path d="M426.925,662.064c-.195-.42-.365-.653-.595-.974-.03-.041-.073-.086-.11-.132-.719-.897-1.699-1.576-3.013-2.05-1.895-.684-3.969-.727-5.937-.294-4.073.896-7.201,3.09-9.384,6.584-1.026,1.642-1.676,3.524-1.692,5.456h-.005v.214s0,.01,0,.015c0,.002,0,.003,0,.005v60.445h2.921v-55.214c.388.226.8.435,1.265.607,2.08.769,4.362.742,6.52.235,3.978-.935,7.027-3.179,9.147-6.732.871-1.459,1.458-3.099,1.52-4.797.048-1.299-.165-2.422-.638-3.368Z"/>
  </g>
  <g id="_2_14" data-name="2/14">
    <path d="M491.243,682.297s0-.01,0-.015c0-.002,0-.003,0-.005v-60.445h-2.921v55.214c-.388-.226-.8-.435-1.265-.607-2.08-.769-4.362-.742-6.52-.235-3.978.935-7.027,3.179-9.147,6.732-.871,1.459-1.458,3.099-1.52,4.797-.048,1.299.165,2.422.638,3.368.195.42.365.653.595.974.03.041.073.086.11.132.719.897,1.7,1.576,3.013,2.05,1.895.684,3.969.727,5.937.294,4.073-.896,7.201-3.09,9.384-6.584,1.026-1.642,1.676-3.524,1.692-5.456h.005v-.214Z"/>
  </g>
  <g id="_3_14" data-name="3/14">
    <g>
      <g>
        <path d="M553.773,680.759c-.266-1.192-.827-2.178-1.69-2.954.322.312.619.652.874,1.039.389.601.653,1.242.816,1.915Z"/>
        <path d="M553.874,681.221c.007.046.009.094.016.14-.006-.046-.009-.094-.016-.14Z"/>
        <path d="M553.773,680.759c.034.153.077.301.101.461-.025-.156-.064-.308-.101-.461Z"/>
        <path d="M553.89,681.36c.034.255.054.519.063.792-.005-.269-.027-.533-.063-.792Z"/>
      </g>
      <path d="M553.961,682.367c0-.025.002-.051.002-.076,0-.008-.001-.016-.002-.024v-60.433h-2.921v55.224c-1.094-.695-2.431-1.123-4.077-1.208-.104-.001-.206.007-.309.009-1.136-.038-2.283.093-3.397.355-3.978.935-7.027,3.179-9.147,6.732-.871,1.459-1.458,3.099-1.52,4.797-.007.201.003.39.008.582-.04,1.298.277,2.49.975,3.567,1.26,1.961,3.294,2.941,6.102,2.941.069.003.139-.003.208-.001.351.007.7-.003,1.049-.027.655-.034,1.309-.103,1.951-.245,4.073-.896,7.202-3.091,9.384-6.584,1.028-1.645,1.679-3.532,1.692-5.468l.003.004v-.145ZM550.58,684.673c-.972,1.461-2.7,2.923-5.184,4.385-2.484,1.461-4.788,2.37-6.912,2.727-2.196.356-3.6.018-4.211-1.016-.612-.998-.234-2.371,1.134-4.117,1.332-1.782,3.258-3.404,5.778-4.866,2.484-1.497,4.662-2.299,6.533-2.406,1.8-.178,2.97.285,3.51,1.39.504,1.105.288,2.406-.648,3.903Z"/>
    </g>
  </g>
  <g id="_1_15" data-name="1/15">
    <path d="M706.608,691.547s0-.01,0-.015c0-.002,0-.003,0-.005v-60.445h-2.921v55.214c-.388-.226-.8-.435-1.265-.607-2.08-.769-4.362-.742-6.52-.235-3.978.935-7.027,3.179-9.147,6.732-.871,1.459-1.458,3.099-1.52,4.797-.048,1.299.165,2.422.638,3.368.195.42.365.653.595.974.03.041.073.086.11.132.719.897,1.7,1.576,3.013,2.05,1.895.684,3.969.727,5.937.294,4.073-.896,7.201-3.09,9.384-6.584,1.026-1.642,1.676-3.524,1.692-5.456h.005v-.214Z"/>
  </g>
  <g id="_2_15" data-name="2/15">
    <path d="M764.903,670.314c-.195-.42-.365-.653-.595-.974-.03-.041-.073-.086-.11-.132-.719-.897-1.699-1.576-3.013-2.05-1.895-.684-3.969-.727-5.937-.294-4.073.896-7.201,3.09-9.384,6.584-1.026,1.642-1.676,3.524-1.692,5.456h-.005v.214s0,.01,0,.015c0,.002,0,.003,0,.005v60.445h2.921v-55.214c.388.226.8.435,1.265.607,2.08.769,4.362.742,6.52.235,3.978-.935,7.027-3.179,9.147-6.732.871-1.459,1.458-3.099,1.52-4.797.048-1.299-.165-2.422-.638-3.368Z"/>
  </g>
  <g id="_3_15" data-name="3/15">
    <path d="M826.707,652.948c-.195-.42-.365-.653-.595-.974-.03-.041-.073-.086-.11-.132-.719-.897-1.699-1.576-3.013-2.05-1.895-.684-3.969-.727-5.937-.294-4.073.896-7.201,3.09-9.384,6.584-1.026,1.642-1.676,3.524-1.692,5.456h-.005v.214s0,.01,0,.015c0,.002,0,.003,0,.005v60.445h2.921v-55.214c.388.226.8.435,1.265.607,2.08.769,4.362.742,6.52.235,3.978-.935,7.027-3.179,9.147-6.732.871-1.459,1.458-3.099,1.52-4.797.048-1.299-.165-2.422-.638-3.368Z"/>
  </g>
  <g id="_4_15" data-name="4/15">
    <path d="M886.707,652.948c-.195-.42-.365-.653-.595-.974-.03-.041-.073-.086-.11-.132-.719-.897-1.699-1.576-3.013-2.05-1.895-.684-3.969-.727-5.937-.294-4.073.896-7.201,3.09-9.384,6.584-1.026,1.642-1.676,3.524-1.692,5.456h-.005v.214s0,.01,0,.015c0,.002,0,.003,0,.005v60.445h2.921v-55.214c.388.226.8.435,1.265.607,2.08.769,4.362.742,6.52.235,3.978-.935,7.027-3.179,9.147-6.732.871-1.459,1.458-3.099,1.52-4.797.048-1.299-.165-2.422-.638-3.368Z"/>
  </g>
  <g id="_1_16" data-name="1/16">
    <g>
      <g>
        <g>
          <path d="M983.5,691.721c.007.046.009.094.016.14-.006-.046-.009-.094-.016-.14Z"/>
          <path d="M983.399,691.26c.034.153.077.301.101.461-.025-.156-.064-.308-.101-.461Z"/>
          <path d="M983.515,691.861c.034.255.054.519.063.792-.005-.269-.027-.533-.063-.792Z"/>
        </g>
        <path d="M983.587,692.867c0-.025.002-.051.002-.076,0-.008-.001-.016-.002-.024v-60.433h-2.921v55.224c-1.094-.695-2.431-1.123-4.078-1.208-.104-.001-.206.007-.309.009-1.136-.038-2.283.093-3.397.355-3.978.935-7.027,3.179-9.147,6.732-.871,1.459-1.458,3.099-1.52,4.797-.007.201.003.39.008.582-.04,1.298.277,2.49.975,3.567,1.26,1.961,3.294,2.941,6.102,2.941.069.003.139-.003.208-.001.351.007.7-.003,1.049-.027.655-.034,1.309-.103,1.951-.245,4.073-.896,7.202-3.091,9.384-6.584,1.028-1.645,1.679-3.532,1.692-5.468l.004.004v-.145ZM980.206,695.174c-.972,1.461-2.7,2.923-5.184,4.385-2.484,1.461-4.788,2.37-6.912,2.727-2.196.356-3.6.018-4.211-1.016-.612-.998-.234-2.371,1.134-4.117,1.332-1.782,3.258-3.404,5.778-4.866,2.484-1.497,4.662-2.299,6.533-2.406,1.8-.178,2.97.285,3.51,1.39.504,1.105.288,2.406-.648,3.903Z"/>
      </g>
      <circle cx="994.674" cy="686.44" r="3.2"/>
    </g>
  </g>
  <g id="_2_16" data-name="2/16">
    <path d="M1139.434,668.923l2.851-4.322-11.954-16.552-.874.69,2.253,4.138c.013.025.027.051.04.076,1.827,3.468,2.194,7.549,1.041,11.295-1.137,3.695-2.601,6.448-4.392,8.261-.398,1.502,2.651,5.717,9.149,12.644l-3.391-.412c-1.368-.166-2.781,0-4.006.633-2.103,1.086-3.086,2.974-2.948,5.664,0,.184.015.383.046.598.644,2.82,2.259,4.845,4.368,7.035l3.862,3.218.92-.598c-.858-.667-1.716-1.974-2.574-3.921-.682-1.546-.742-3.361.096-4.829.362-.634.836-1.135,1.421-1.503.736-.46,1.64-.705,2.713-.736,1.318-.092,3.142.383,5.471,1.425l.092-1.149-3.402-4.506c-.552-.644-1.046-1.36-1.481-2.15-2.322-4.207-2.256-9.364-.059-13.637.233-.454.486-.908.759-1.362Z"/>
  </g>
</svg>